<?xml version="1.0" encoding="utf-8"?>
<svg version="1.1" id="Layer_1" xmlns="http://www.w3.org/2000/svg" xmlns:xlink="http://www.w3.org/1999/xlink" x="0px" y="0px"
	 viewBox="0 0 122.9 103.6" style="enable-background:new 0 0 122.9 103.6;" xml:space="preserve">
<style type="text/css">
	.st0{fill-rule:evenodd;clip-rule:evenodd;fill:#FFFFFF;}
</style>
<g>
	<g>
		<path class="st0" d="M103.6,26H4c-2.2,0-4-1.8-4-4v-8.3c0-2.2,1.8-4,4-4h99.6c2.2,0,4,1.8,4,4V22C107.6,24.2,105.8,26,103.6,26z"
			/>
		<path class="st0" d="M118.9,59.9H19.3c-2.2,0-4-1.8-4-4v-8.3c0-2.2,1.8-4,4-4h99.6c2.2,0,4,1.8,4,4v8.3
			C122.9,58.1,121.1,59.9,118.9,59.9z"/>
		<path class="st0" d="M103.6,93.9H4c-2.2,0-4-1.8-4-4v-8.3c0-2.2,1.8-4,4-4h99.6c2.2,0,4,1.8,4,4v8.3
			C107.6,92.1,105.8,93.9,103.6,93.9z"/>
	</g>
</g>
</svg>
