<?xml version="1.0" encoding="utf-8"?>
<!-- Generator: Adobe Illustrator 24.3.0, SVG Export Plug-In . SVG Version: 6.00 Build 0)  -->
<svg version="1.1" id="Layer_1" xmlns="http://www.w3.org/2000/svg" xmlns:xlink="http://www.w3.org/1999/xlink" x="0px" y="0px"
	 viewBox="0 0 1080 1080" style="enable-background:new 0 0 1080 1080;" xml:space="preserve">
<style type="text/css">
	.st0{fill:url(#SVGID_1_);}
	.st1{fill:url(#SVGID_2_);}
	.st2{fill:url(#SVGID_3_);}
	.st3{fill:url(#SVGID_4_);}
	.st4{fill:#002760;}
	.st5{fill:url(#SVGID_5_);}
	.st6{filter:url(#Adobe_OpacityMaskFilter);}
	.st7{filter:url(#Adobe_OpacityMaskFilter_1_);}
	.st8{mask:url(#SVGID_6_);fill:url(#SVGID_7_);}
	.st9{fill:url(#SVGID_8_);}
	.st10{fill:url(#SVGID_9_);}
	.st11{fill:url(#SVGID_10_);}
	.st12{fill:url(#SVGID_11_);}
	.st13{filter:url(#Adobe_OpacityMaskFilter_2_);}
	.st14{filter:url(#Adobe_OpacityMaskFilter_3_);}
	.st15{mask:url(#SVGID_12_);fill:url(#SVGID_13_);}
	.st16{opacity:0.4;fill:url(#SVGID_14_);}
	.st17{fill:url(#SVGID_15_);}
	.st18{fill:url(#SVGID_16_);}
	.st19{fill:url(#SVGID_17_);}
	.st20{fill:url(#SVGID_18_);}
	.st21{fill:url(#SVGID_19_);}
	.st22{fill:url(#SVGID_20_);}
	.st23{fill:url(#SVGID_21_);}
	.st24{fill:#FFFFFF;stroke:#000000;stroke-miterlimit:10;}
	.st25{fill:url(#SVGID_22_);}
	.st26{fill:url(#SVGID_23_);}
	.st27{fill:url(#SVGID_24_);}
	.st28{fill:url(#SVGID_25_);}
	.st29{fill:url(#SVGID_26_);}
	.st30{filter:url(#Adobe_OpacityMaskFilter_4_);}
	.st31{filter:url(#Adobe_OpacityMaskFilter_5_);}
	.st32{mask:url(#SVGID_27_);fill:url(#SVGID_28_);}
	.st33{fill:url(#SVGID_29_);}
	.st34{filter:url(#Adobe_OpacityMaskFilter_6_);}
	.st35{filter:url(#Adobe_OpacityMaskFilter_7_);}
	.st36{mask:url(#SVGID_30_);fill:url(#SVGID_31_);}
	.st37{fill:url(#SVGID_32_);}
	.st38{fill:url(#SVGID_33_);}
</style>
<g>
	<g>
		<linearGradient id="SVGID_1_" gradientUnits="userSpaceOnUse" x1="415.2048" y1="945.4573" x2="656.4071" y2="353.9754">
			<stop  offset="0" style="stop-color:#FFCE61"/>
			<stop  offset="0.4665" style="stop-color:#FF1515"/>
			<stop  offset="0.9991" style="stop-color:#7F0000"/>
		</linearGradient>
		<path class="st0" d="M7.1,855.2c0,0,102.3-195.4,193-137.2c90.7,58.1,107,55.8,172.1,25.6c65.1-30.2,118.6-32.6,114,25.6
			c-4.7,58.1,95.4,39.5,162.8-25.6c67.4-65.1,7,58.1,51.2,72.1c44.2,14,193-204.7,232.6-123.3s125.6-172.1,37.2-379.1l-180.3-69.4
			L683.9,420.3c0,0-116.3,114-234.9,134.9c-118.6,20.9-246.5,32.6-246.5,32.6S37.3,666.8,7.1,855.2z"/>
		<linearGradient id="SVGID_2_" gradientUnits="userSpaceOnUse" x1="335.2751" y1="471.0557" x2="507.3423" y2="801.3627">
			<stop  offset="0" style="stop-color:#FFCE61"/>
			<stop  offset="0.4665" style="stop-color:#FF1515"/>
			<stop  offset="0.9991" style="stop-color:#7F0000"/>
		</linearGradient>
		<path class="st1" d="M747.8,256.9c0,0-45.3,251.7-319.7,270.3C153.6,545.9,32.7,631.9,7.1,855.2c0,0,79.1-248.9,281.4-253.5
			c202.3-4.7,383.2-33.2,454.4-263.1C742.9,338.5,779.1,275,747.8,256.9z"/>
	</g>
	<linearGradient id="SVGID_3_" gradientUnits="userSpaceOnUse" x1="766.2584" y1="514.7571" x2="742.6932" y2="485.8845">
		<stop  offset="0" style="stop-color:#FFF7BD"/>
		<stop  offset="0.4909" style="stop-color:#DB6565"/>
		<stop  offset="0.9997" style="stop-color:#D63838"/>
	</linearGradient>
	<path class="st2" d="M746.5,497.2l0.8,4.7c0,0-4.4-0.2-0.8,5.7s9.6,2.1,9.6,2.1l-2.2-27L746.5,497.2z"/>
	<linearGradient id="SVGID_4_" gradientUnits="userSpaceOnUse" x1="751.7306" y1="484.7112" x2="742.3904" y2="478.5709">
		<stop  offset="2.454040e-03" style="stop-color:#B6C7D8"/>
		<stop  offset="0.9985" style="stop-color:#F0FFFF"/>
	</linearGradient>
	<polygon class="st3" points="750.6,468.1 739.5,488.9 746.5,497.2 755.2,480.2 	"/>
	<path class="st4" d="M991,1003.4c0,0-7,31.4-37.2,38.1c0,0-2.3,2.2,0,6.7H998l9.3-15.7v9h9.3l-9.3-38.1H991z"/>
	<path class="st4" d="M798,1003.4c0,0-7,31.4-37.2,38.1c0,0-2.3,2.2,0,6.7H805l9.3-15.7v9h9.3l-9.3-38.1H798z"/>
	<g>
		<linearGradient id="SVGID_5_" gradientUnits="userSpaceOnUse" x1="967.5612" y1="743.1956" x2="708.6864" y2="747.8046">
			<stop  offset="2.748420e-03" style="stop-color:#0E158E"/>
			<stop  offset="0.9997" style="stop-color:#1B63CC"/>
		</linearGradient>
		<path class="st5" d="M1008.5,1004.5h-19.7L828.5,590.9l-12.7,51.8c-3,65.1-7,166.7-7,166.7s36.4,120.2,10.1,196.3h-23.3
			c0,0-55.4-231.4-35-409.7v0c1.4-12,3.1-23.8,5.2-35.2c0,0,0,0,0,0c2.6-14,5.7-27.4,9.5-40.2l3,0.7c4.8-7.6,18-26,36.4-33.8
			c16.6-7.1,37.4-5.7,60.5,19.5c6.9,7.5,14,17.2,21.2,29.4c0,0,13.2,17.5,17.6,48.7c4.4,31.2,37.3,208.7,37.3,208.7
			s48.3,37.1,52.7,126.8C1007.7,994.8,1008.4,1003.6,1008.5,1004.5z"/>
	</g>
	<defs>
		<filter id="Adobe_OpacityMaskFilter" filterUnits="userSpaceOnUse" x="760.7" y="487.2" width="247.8" height="517.2">
			<feFlood  style="flood-color:white;flood-opacity:1" result="back"/>
			<feBlend  in="SourceGraphic" in2="back" mode="normal"/>
		</filter>
	</defs>
	<mask maskUnits="userSpaceOnUse" x="760.7" y="487.2" width="247.8" height="517.2" id="SVGID_6_">
		<g class="st6">
			<defs>
				<filter id="Adobe_OpacityMaskFilter_1_" filterUnits="userSpaceOnUse" x="760.7" y="487.2" width="247.8" height="517.2">
					<feFlood  style="flood-color:white;flood-opacity:1" result="back"/>
					<feBlend  in="SourceGraphic" in2="back" mode="normal"/>
				</filter>
			</defs>
			<mask maskUnits="userSpaceOnUse" x="760.7" y="487.2" width="247.8" height="517.2" id="SVGID_6_">
				<g class="st7">
				</g>
			</mask>
			<linearGradient id="SVGID_7_" gradientUnits="userSpaceOnUse" x1="1448.3085" y1="700.0487" x2="778.473" y2="756.8922">
				<stop  offset="2.748420e-03" style="stop-color:#FFFFFF"/>
				<stop  offset="0.9997" style="stop-color:#000000"/>
			</linearGradient>
			<path class="st8" d="M1008.5,1004.5h-9.7c-1.6,0-66.1-207.6-66.1-207.6L882.3,590l-72.5-25.1L760.7,596v0l5.2-35.2c0,0,0,0,0,0
				c-3.7-58.7,19.9-74.8,48.9-73.4c20,1,42.5,10.2,60.5,19.5c6.9,7.5,14,17.2,21.2,29.4c0,0,13.2,17.5,17.6,48.7
				c4.4,31.2,37.3,208.7,37.3,208.7s48.3,37.1,52.7,126.8C1007.7,994.8,1008.4,1003.6,1008.5,1004.5z"/>
		</g>
	</mask>
	<linearGradient id="SVGID_8_" gradientUnits="userSpaceOnUse" x1="1448.3085" y1="700.0487" x2="778.473" y2="756.8922">
		<stop  offset="2.748420e-03" style="stop-color:#000000"/>
		<stop  offset="0.9997" style="stop-color:#000000"/>
	</linearGradient>
	<path class="st9" d="M1008.5,1004.5h-9.7c-1.6,0-66.1-207.6-66.1-207.6L882.3,590l-72.5-25.1L760.7,596v0l5.2-35.2c0,0,0,0,0,0
		c-3.7-58.7,19.9-74.8,48.9-73.4c20,1,42.5,10.2,60.5,19.5c6.9,7.5,14,17.2,21.2,29.4c0,0,13.2,17.5,17.6,48.7
		c4.4,31.2,37.3,208.7,37.3,208.7s48.3,37.1,52.7,126.8C1007.7,994.8,1008.4,1003.6,1008.5,1004.5z"/>
	<linearGradient id="SVGID_9_" gradientUnits="userSpaceOnUse" x1="933.2235" y1="461.9262" x2="700.3649" y2="288.2304">
		<stop  offset="2.748420e-03" style="stop-color:#0E158E"/>
		<stop  offset="0.9997" style="stop-color:#1B63CC"/>
	</linearGradient>
	<path class="st10" d="M904.5,217.7l71.6,39.2c0,0-93,188.4-80.4,246.8c11.6,53.8,16.3,65,16.3,65l-95.4-13.9v-31.4l-9.8,29.8
		l-39.1,22.2c0,0-34.1-118.9-8-295c1.6-11-3.6-65.8-3.6-65.8l88.1-11.1L904.5,217.7z"/>
	<linearGradient id="SVGID_10_" gradientUnits="userSpaceOnUse" x1="905.6685" y1="386.3344" x2="820.6589" y2="294.1552">
		<stop  offset="2.454040e-03" style="stop-color:#B6C7D8"/>
		<stop  offset="0.9985" style="stop-color:#F0FFFF"/>
	</linearGradient>
	<path class="st11" d="M905,216.9c0,0-76.8,165.8-83.7,246.5c0,0-25.6-147.9,20.9-248.7h23.3L905,216.9z"/>
	<linearGradient id="SVGID_11_" gradientUnits="userSpaceOnUse" x1="860.6182" y1="160.231" x2="928.9847" y2="167.9127">
		<stop  offset="0" style="stop-color:#FFF7BD"/>
		<stop  offset="0.4909" style="stop-color:#DB6565"/>
		<stop  offset="0.9997" style="stop-color:#D63838"/>
	</linearGradient>
	<path class="st12" d="M909.1,105.9l-4.8,111.8l-42.6,8.6l-19-11.9l20.2-96.1C862.8,118.4,899.4,83.8,909.1,105.9z"/>
	<defs>
		<filter id="Adobe_OpacityMaskFilter_2_" filterUnits="userSpaceOnUse" x="855.8" y="112.1" width="53.6" height="93">
			<feFlood  style="flood-color:white;flood-opacity:1" result="back"/>
			<feBlend  in="SourceGraphic" in2="back" mode="normal"/>
		</filter>
	</defs>
	<mask maskUnits="userSpaceOnUse" x="855.8" y="112.1" width="53.6" height="93" id="SVGID_12_">
		<g class="st13">
			<defs>
				<filter id="Adobe_OpacityMaskFilter_3_" filterUnits="userSpaceOnUse" x="855.8" y="112.1" width="53.6" height="93">
					<feFlood  style="flood-color:white;flood-opacity:1" result="back"/>
					<feBlend  in="SourceGraphic" in2="back" mode="normal"/>
				</filter>
			</defs>
			<mask maskUnits="userSpaceOnUse" x="855.8" y="112.1" width="53.6" height="93" id="SVGID_12_">
				<g class="st14">
				</g>
			</mask>
			<linearGradient id="SVGID_13_" gradientUnits="userSpaceOnUse" x1="909.0443" y1="98.3706" x2="870.6364" y2="186.9647">
				<stop  offset="2.748420e-03" style="stop-color:#FFFFFF"/>
				<stop  offset="0.9997" style="stop-color:#000000"/>
			</linearGradient>
			<path class="st15" d="M855.8,151.8c0,0,17.8,53.3,29.4,53.3c11.6,0,20.8-26.6,20.8-26.6l3.4-62.1l-21.8-4.3
				C887.5,112.1,856.6,131.1,855.8,151.8z"/>
		</g>
	</mask>
	<linearGradient id="SVGID_14_" gradientUnits="userSpaceOnUse" x1="909.0443" y1="98.3706" x2="870.6364" y2="186.9647">
		<stop  offset="2.748420e-03" style="stop-color:#000000"/>
		<stop  offset="0.9997" style="stop-color:#000000"/>
	</linearGradient>
	<path class="st16" d="M855.8,151.8c0,0,17.8,53.3,29.4,53.3c11.6,0,20.8-26.6,20.8-26.6l3.4-62.1l-21.8-4.3
		C887.5,112.1,856.6,131.1,855.8,151.8z"/>
	<linearGradient id="SVGID_15_" gradientUnits="userSpaceOnUse" x1="850.8565" y1="151.9953" x2="998.0878" y2="157.8846">
		<stop  offset="0" style="stop-color:#FFF7BD"/>
		<stop  offset="0.4909" style="stop-color:#DB6565"/>
		<stop  offset="0.9997" style="stop-color:#D63838"/>
	</linearGradient>
	<path class="st17" d="M851.6,149.5c0,0,7.8,7.6,43.7,8.6C895.3,158.1,880.7,144.1,851.6,149.5z"/>
	<linearGradient id="SVGID_16_" gradientUnits="userSpaceOnUse" x1="850.9073" y1="97.701" x2="976.8852" y2="145.8388">
		<stop  offset="0" style="stop-color:#FFF7BD"/>
		<stop  offset="0.4909" style="stop-color:#DB6565"/>
		<stop  offset="0.9997" style="stop-color:#D63838"/>
	</linearGradient>
	<path class="st18" d="M857.2,78.2l-5.6,71.2c0,0,24.7-3.2,43.7,8.6l17.9-84.2C913.2,73.9,866.2,37.2,857.2,78.2z"/>
	<linearGradient id="SVGID_17_" gradientUnits="userSpaceOnUse" x1="923.5901" y1="114.7757" x2="884.6694" y2="91.2184">
		<stop  offset="0" style="stop-color:#FFF7BD"/>
		<stop  offset="0.4909" style="stop-color:#DB6565"/>
		<stop  offset="0.9997" style="stop-color:#D63838"/>
	</linearGradient>
	<path class="st19" d="M908,97.7c0,0,6.2-5.4,10.7,0c4.5,5.4-11.1,26.6-16.8,18.1L908,97.7z"/>
	<linearGradient id="SVGID_18_" gradientUnits="userSpaceOnUse" x1="934.0454" y1="139.0655" x2="845.9246" y2="-7.294773e-02">
		<stop  offset="2.748420e-03" style="stop-color:#0E158E"/>
		<stop  offset="0.9997" style="stop-color:#1B63CC"/>
	</linearGradient>
	<path class="st20" d="M908.5,107.4l-6.4-0.1l3.4-20.5l-6.7-18.4l-36-2.8c0,0-15.5-12.3-6.6-23.1c9-10.8,23.5-10.8,23.5-10.8
		s-9,7.6-6.7,10.8c0,0,3.4-8.6,14.6-7.6c0,0-5.6,8.6-1.1,8.6c4.5,0,28,11.9,29.1,28.1c0,0,5.6,1.1,2.2,8.6
		C914.3,87.9,908.5,107.4,908.5,107.4z"/>
	<linearGradient id="SVGID_19_" gradientUnits="userSpaceOnUse" x1="947.8707" y1="386.3881" x2="1048.4995" y2="324.1671">
		<stop  offset="2.748420e-03" style="stop-color:#0E158E"/>
		<stop  offset="0.9997" style="stop-color:#1B63CC"/>
	</linearGradient>
	<path class="st21" d="M976.1,256.9l96,164.6l-159.5,90.9l-3.3-20.4c0,0,58.6-61.1,102.5-73.7l-73.6-79.2
		C938.3,339.3,950,275.8,976.1,256.9z"/>
	<linearGradient id="SVGID_20_" gradientUnits="userSpaceOnUse" x1="887.1622" y1="510.3505" x2="950.9189" y2="500.3645">
		<stop  offset="0" style="stop-color:#FFF7BD"/>
		<stop  offset="0.4909" style="stop-color:#DB6565"/>
		<stop  offset="0.9997" style="stop-color:#D63838"/>
	</linearGradient>
	<path class="st22" d="M909.4,492.1c0,0-24.4-1.6-27.7,4.7c-3.3,6.3,0.5,31.2,5.9,30.5c5.5-0.7,25-14.8,25-14.8L909.4,492.1z"/>
	<linearGradient id="SVGID_21_" gradientUnits="userSpaceOnUse" x1="952.2286" y1="541.8648" x2="904.6025" y2="488.0934">
		<stop  offset="2.454040e-03" style="stop-color:#B6C7D8"/>
		<stop  offset="0.9985" style="stop-color:#F0FFFF"/>
	</linearGradient>
	<path class="st23" d="M909.4,490.6l3.3,26.7l11.4-4.7l-5.8-29.2C918.2,483.4,911,485.9,909.4,490.6z"/>
	<path class="st24" d="M791,620.3"/>
	<linearGradient id="SVGID_22_" gradientUnits="userSpaceOnUse" x1="946.6696" y1="461.5571" x2="855.2587" y2="327.1293">
		<stop  offset="2.748420e-03" style="stop-color:#0E158E"/>
		<stop  offset="0.9997" style="stop-color:#1B63CC"/>
	</linearGradient>
	<path class="st25" d="M905,214.7l11.7,9.7l-21,120.2l-20.9-9l4.7,24.6l-58.1,109.8C821.2,470.1,821.2,373.8,905,214.7z"/>
	<linearGradient id="SVGID_23_" gradientUnits="userSpaceOnUse" x1="740.9921" y1="332.2694" x2="774.0231" y2="334.5739">
		<stop  offset="2.748420e-03" style="stop-color:#0E158E"/>
		<stop  offset="0.9997" style="stop-color:#1B63CC"/>
	</linearGradient>
	<path class="st26" d="M843.1,212.1c0,0-47.5,85.5-21.9,251.3v11.2L791,355.9l18.6-31.4l-18.6,9c0,0-1.7-82.8,49.1-131l4.1,1.2
		L843.1,212.1z"/>
	<linearGradient id="SVGID_24_" gradientUnits="userSpaceOnUse" x1="901.2045" y1="247.2786" x2="879.1839" y2="223.2095">
		<stop  offset="2.454040e-03" style="stop-color:#B6C7D8"/>
		<stop  offset="0.9985" style="stop-color:#F0FFFF"/>
	</linearGradient>
	<polygon class="st27" points="860.8,225.9 867.8,243.8 896.2,231.7 904.5,217.7 	"/>
	<linearGradient id="SVGID_25_" gradientUnits="userSpaceOnUse" x1="825.8497" y1="210.4241" x2="850.943" y2="228.3479">
		<stop  offset="2.454040e-03" style="stop-color:#B6C7D8"/>
		<stop  offset="0.9985" style="stop-color:#F0FFFF"/>
	</linearGradient>
	<polygon class="st28" points="860.8,225.9 846.8,234.9 837.4,225.9 842.2,214.7 	"/>
	<linearGradient id="SVGID_26_" gradientUnits="userSpaceOnUse" x1="921.1836" y1="467.4885" x2="798.2783" y2="273.9126">
		<stop  offset="0" style="stop-color:#FFF6D2"/>
		<stop  offset="0.4665" style="stop-color:#FFFC83"/>
		<stop  offset="0.9997" style="stop-color:#F9B61E"/>
	</linearGradient>
	<path class="st29" d="M846.8,234.9l2.3,20.2c0,0-34.5,88.9-33.6,143l5.6,58.5l15.3-73.4c0,0,10.3-96.7,21.9-125.9l9.3-13.4l-7-17.9
		L846.8,234.9z"/>
	<defs>
		<filter id="Adobe_OpacityMaskFilter_4_" filterUnits="userSpaceOnUse" x="858.3" y="65.7" width="47" height="41.7">
			<feFlood  style="flood-color:white;flood-opacity:1" result="back"/>
			<feBlend  in="SourceGraphic" in2="back" mode="normal"/>
		</filter>
	</defs>
	<mask maskUnits="userSpaceOnUse" x="858.3" y="65.7" width="47" height="41.7" id="SVGID_27_">
		<g class="st30">
			<defs>
				<filter id="Adobe_OpacityMaskFilter_5_" filterUnits="userSpaceOnUse" x="858.3" y="65.7" width="47" height="41.7">
					<feFlood  style="flood-color:white;flood-opacity:1" result="back"/>
					<feBlend  in="SourceGraphic" in2="back" mode="normal"/>
				</filter>
			</defs>
			<mask maskUnits="userSpaceOnUse" x="858.3" y="65.7" width="47" height="41.7" id="SVGID_27_">
				<g class="st31">
				</g>
			</mask>
			<linearGradient id="SVGID_28_" gradientUnits="userSpaceOnUse" x1="913.9589" y1="15.9518" x2="882.7208" y2="85.0853">
				<stop  offset="2.748420e-03" style="stop-color:#FFFFFF"/>
				<stop  offset="0.9997" style="stop-color:#000000"/>
			</linearGradient>
			<polygon class="st32" points="862.7,65.7 898.7,68.5 905.4,86.9 902,107.4 898.2,86.5 858.3,74.1 			"/>
		</g>
	</mask>
	<linearGradient id="SVGID_29_" gradientUnits="userSpaceOnUse" x1="913.9589" y1="15.9518" x2="882.7208" y2="85.0853">
		<stop  offset="2.748420e-03" style="stop-color:#000000"/>
		<stop  offset="0.9997" style="stop-color:#000000"/>
	</linearGradient>
	<polygon class="st33" points="862.7,65.7 898.7,68.5 905.4,86.9 902,107.4 898.2,86.5 858.3,74.1 	"/>
	<defs>
		<filter id="Adobe_OpacityMaskFilter_6_" filterUnits="userSpaceOnUse" x="938.3" y="307.2" width="73.6" height="111.3">
			<feFlood  style="flood-color:white;flood-opacity:1" result="back"/>
			<feBlend  in="SourceGraphic" in2="back" mode="normal"/>
		</filter>
	</defs>
	<mask maskUnits="userSpaceOnUse" x="938.3" y="307.2" width="73.6" height="111.3" id="SVGID_30_">
		<g class="st34">
			<defs>
				<filter id="Adobe_OpacityMaskFilter_7_" filterUnits="userSpaceOnUse" x="938.3" y="307.2" width="73.6" height="111.3">
					<feFlood  style="flood-color:white;flood-opacity:1" result="back"/>
					<feBlend  in="SourceGraphic" in2="back" mode="normal"/>
				</filter>
			</defs>
			<mask maskUnits="userSpaceOnUse" x="938.3" y="307.2" width="73.6" height="111.3" id="SVGID_30_">
				<g class="st35">
				</g>
			</mask>
			<linearGradient id="SVGID_31_" gradientUnits="userSpaceOnUse" x1="816.1964" y1="167.5072" x2="994.4094" y2="387.2006">
				<stop  offset="2.748420e-03" style="stop-color:#FFFFFF"/>
				<stop  offset="0.9997" style="stop-color:#000000"/>
			</linearGradient>
			<path class="st36" d="M946.7,307.2c-0.2,0.5,65.1,111.3,65.1,111.3l-73.6-79.2L946.7,307.2z"/>
		</g>
	</mask>
	<linearGradient id="SVGID_32_" gradientUnits="userSpaceOnUse" x1="816.1964" y1="167.5072" x2="994.4094" y2="387.2006">
		<stop  offset="2.748420e-03" style="stop-color:#000000"/>
		<stop  offset="0.9997" style="stop-color:#000000"/>
	</linearGradient>
	<path class="st37" d="M946.7,307.2c-0.2,0.5,65.1,111.3,65.1,111.3l-73.6-79.2L946.7,307.2z"/>
	<linearGradient id="SVGID_33_" gradientUnits="userSpaceOnUse" x1="780.1058" y1="373.0253" x2="668.8717" y2="299.8992">
		<stop  offset="2.748420e-03" style="stop-color:#0E158E"/>
		<stop  offset="0.9997" style="stop-color:#1B63CC"/>
	</linearGradient>
	<path class="st38" d="M756.2,214.7L634.9,374.4l104.6,114.5l11-20.8c0,0-23.9-74.4-64.7-97l70.3-63.7
		C756.2,307.3,774.3,253.1,756.2,214.7z"/>
</g>
</svg>
