<?xml version="1.0" encoding="utf-8"?>
<!-- Generator: Adobe Illustrator 24.3.0, SVG Export Plug-In . SVG Version: 6.00 Build 0)  -->
<svg version="1.1" id="Layer_1" xmlns="http://www.w3.org/2000/svg" xmlns:xlink="http://www.w3.org/1999/xlink" x="0px" y="0px"
	 viewBox="0 0 860 1080" style="enable-background:new 0 0 860 1080;" xml:space="preserve">
<style type="text/css">
	.st0{fill:url(#SVGID_1_);}
	.st1{fill:url(#SVGID_2_);}
	.st2{fill:url(#SVGID_3_);}
	.st3{filter:url(#Adobe_OpacityMaskFilter);}
	.st4{filter:url(#Adobe_OpacityMaskFilter_1_);}
	.st5{mask:url(#SVGID_4_);fill:url(#SVGID_5_);}
	.st6{fill:url(#SVGID_6_);}
	.st7{fill:url(#SVGID_7_);}
	.st8{filter:url(#Adobe_OpacityMaskFilter_2_);}
	.st9{filter:url(#Adobe_OpacityMaskFilter_3_);}
	.st10{mask:url(#SVGID_8_);fill:url(#SVGID_9_);}
	.st11{opacity:0.32;fill:url(#SVGID_10_);}
	.st12{fill:url(#SVGID_11_);}
	.st13{filter:url(#Adobe_OpacityMaskFilter_4_);}
	.st14{filter:url(#Adobe_OpacityMaskFilter_5_);}
	.st15{mask:url(#SVGID_12_);fill:url(#SVGID_13_);}
	.st16{fill:url(#SVGID_14_);}
	.st17{fill:url(#SVGID_15_);}
	.st18{filter:url(#Adobe_OpacityMaskFilter_6_);}
	.st19{filter:url(#Adobe_OpacityMaskFilter_7_);}
	.st20{mask:url(#SVGID_16_);fill:url(#SVGID_17_);}
	.st21{fill:url(#SVGID_18_);}
	.st22{fill:#0049FF;}
	.st23{filter:url(#Adobe_OpacityMaskFilter_8_);}
	.st24{filter:url(#Adobe_OpacityMaskFilter_9_);}
	.st25{mask:url(#SVGID_19_);fill:url(#SVGID_20_);}
	.st26{opacity:0.17;fill:url(#SVGID_21_);}
	.st27{fill:url(#SVGID_22_);}
	.st28{fill:url(#SVGID_23_);}
	.st29{fill:url(#SVGID_24_);}
	.st30{filter:url(#Adobe_OpacityMaskFilter_10_);}
	.st31{filter:url(#Adobe_OpacityMaskFilter_11_);}
	.st32{mask:url(#SVGID_25_);fill:url(#SVGID_26_);}
	.st33{fill:url(#SVGID_27_);}
	.st34{opacity:0.39;fill:#4382FF;}
	.st35{fill:url(#SVGID_28_);}
	.st36{fill:url(#SVGID_29_);}
	.st37{fill:#FFFFFF;}
	.st38{filter:url(#Adobe_OpacityMaskFilter_12_);}
	.st39{filter:url(#Adobe_OpacityMaskFilter_13_);}
	.st40{mask:url(#SVGID_30_);fill:url(#SVGID_31_);}
	.st41{opacity:0.17;fill:url(#SVGID_32_);}
	.st42{filter:url(#Adobe_OpacityMaskFilter_14_);}
	.st43{filter:url(#Adobe_OpacityMaskFilter_15_);}
	.st44{mask:url(#SVGID_33_);fill:url(#SVGID_34_);}
	.st45{opacity:0.17;fill:url(#SVGID_35_);}
	.st46{fill:url(#SVGID_36_);}
	.st47{filter:url(#Adobe_OpacityMaskFilter_16_);}
	.st48{filter:url(#Adobe_OpacityMaskFilter_17_);}
	.st49{mask:url(#SVGID_37_);fill:url(#SVGID_38_);}
	.st50{opacity:0.65;fill:url(#SVGID_39_);}
	.st51{fill:url(#SVGID_40_);}
	.st52{fill:url(#SVGID_41_);}
	.st53{opacity:0.77;fill:url(#SVGID_42_);}
	.st54{filter:url(#Adobe_OpacityMaskFilter_18_);}
	.st55{filter:url(#Adobe_OpacityMaskFilter_19_);}
	.st56{mask:url(#SVGID_43_);fill:url(#SVGID_44_);}
	.st57{fill:url(#SVGID_45_);}
	.st58{fill:url(#SVGID_46_);}
	.st59{filter:url(#Adobe_OpacityMaskFilter_20_);}
	.st60{filter:url(#Adobe_OpacityMaskFilter_21_);}
	.st61{mask:url(#SVGID_47_);fill:url(#SVGID_48_);}
	.st62{opacity:0.61;fill:url(#SVGID_49_);}
</style>
<g>
	<linearGradient id="SVGID_1_" gradientUnits="userSpaceOnUse" x1="573.0062" y1="634.0376" x2="788.5862" y2="634.0376">
		<stop  offset="3.285260e-03" style="stop-color:#0037FF"/>
		<stop  offset="0.9962" style="stop-color:#50FF9F"/>
	</linearGradient>
	<path class="st0" d="M652.9,404.1l135.7,307.3L581.8,863.9l-8.7-52.1c0,0,81.9-97.7,131.8-125.6l-85-125L652.9,404.1z"/>
	<linearGradient id="SVGID_2_" gradientUnits="userSpaceOnUse" x1="583.8433" y1="947.1064" x2="216.5773" y2="472.1081">
		<stop  offset="0" style="stop-color:#000000"/>
		<stop  offset="0.9986" style="stop-color:#1A66FF"/>
	</linearGradient>
	<path class="st1" d="M823.8,983.4c0,0-141.1-34.3-194.9-21.1c-56.2,13.8-243.4-68.1-252.7-8.3c0,0-47.5-50.4-34.3-116.5
		c13.2-66.1,28.6-113.2,28.6-113.2s22.1-17.6,37.1-11.7c15,5.9,102.3,69,102.3,69l71.7-17.7C581.8,763.9,798.9,934,823.8,983.4z"/>
	<g>
		<linearGradient id="SVGID_3_" gradientUnits="userSpaceOnUse" x1="542.2617" y1="346.2945" x2="370.8235" y2="304.3168">
			<stop  offset="0" style="stop-color:#A9CCFF"/>
			<stop  offset="0.9993" style="stop-color:#FFFFFF"/>
		</linearGradient>
		<polygon class="st2" points="478.6,278.7 427.1,255.6 424.3,405.1 478.6,413.2 532.5,409 530,255.6 		"/>
		<defs>
			<filter id="Adobe_OpacityMaskFilter" filterUnits="userSpaceOnUse" x="426.8" y="275.7" width="104.8" height="123.2">
				<feFlood  style="flood-color:white;flood-opacity:1" result="back"/>
				<feBlend  in="SourceGraphic" in2="back" mode="normal"/>
			</filter>
		</defs>
		<mask maskUnits="userSpaceOnUse" x="426.8" y="275.7" width="104.8" height="123.2" id="SVGID_4_">
			<g class="st3">
				<defs>
					<filter id="Adobe_OpacityMaskFilter_1_" filterUnits="userSpaceOnUse" x="426.8" y="275.7" width="104.8" height="123.2">
						<feFlood  style="flood-color:white;flood-opacity:1" result="back"/>
						<feBlend  in="SourceGraphic" in2="back" mode="normal"/>
					</filter>
				</defs>
				<mask maskUnits="userSpaceOnUse" x="426.8" y="275.7" width="104.8" height="123.2" id="SVGID_4_">
					<g class="st4">
					</g>
				</mask>
				<linearGradient id="SVGID_5_" gradientUnits="userSpaceOnUse" x1="470.781" y1="359.1074" x2="502.6109" y2="191.3891">
					<stop  offset="0" style="stop-color:#000000"/>
					<stop  offset="1" style="stop-color:#FFFFFF"/>
				</linearGradient>
				<polygon class="st5" points="426.8,275.7 478.6,398.9 531.6,354.1 530.5,279.9 				"/>
			</g>
		</mask>
		<linearGradient id="SVGID_6_" gradientUnits="userSpaceOnUse" x1="470.781" y1="359.1074" x2="502.6109" y2="191.3891">
			<stop  offset="0" style="stop-color:#000000"/>
			<stop  offset="1" style="stop-color:#000000"/>
		</linearGradient>
		<polygon class="st6" points="426.8,275.7 478.6,398.9 531.6,354.1 530.5,279.9 		"/>
		<g>
			<linearGradient id="SVGID_7_" gradientUnits="userSpaceOnUse" x1="411.8376" y1="93.787" x2="548.4603" y2="253.18">
				<stop  offset="0" style="stop-color:#A9CCFF"/>
				<stop  offset="0.9993" style="stop-color:#FFFFFF"/>
			</linearGradient>
			<polygon class="st7" points="480.3,98.1 415.3,98.1 415.3,239.2 463.4,305.5 480.3,305.5 497.3,305.5 545.4,239.2 545.4,98.1 			
				"/>
			<defs>
				<filter id="Adobe_OpacityMaskFilter_2_" filterUnits="userSpaceOnUse" x="411.6" y="80.1" width="133.9" height="87">
					<feFlood  style="flood-color:white;flood-opacity:1" result="back"/>
					<feBlend  in="SourceGraphic" in2="back" mode="normal"/>
				</filter>
			</defs>
			<mask maskUnits="userSpaceOnUse" x="411.6" y="80.1" width="133.9" height="87" id="SVGID_8_">
				<g class="st8">
					<defs>
						<filter id="Adobe_OpacityMaskFilter_3_" filterUnits="userSpaceOnUse" x="411.6" y="80.1" width="133.9" height="87">
							<feFlood  style="flood-color:white;flood-opacity:1" result="back"/>
							<feBlend  in="SourceGraphic" in2="back" mode="normal"/>
						</filter>
					</defs>
					<mask maskUnits="userSpaceOnUse" x="411.6" y="80.1" width="133.9" height="87" id="SVGID_8_">
						<g class="st9">
						</g>
					</mask>
					<linearGradient id="SVGID_9_" gradientUnits="userSpaceOnUse" x1="415.8833" y1="171.6422" x2="562.0233" y2="79.6036">
						<stop  offset="0" style="stop-color:#000000"/>
						<stop  offset="1" style="stop-color:#FFFFFF"/>
					</linearGradient>
					<path class="st10" d="M415.3,167.2l6.3-32.9l16.8-27.1c0,0,39.9,24.8,83.8-4.2l16.8,30.3l5.9,33.9l0.6-39.8l-20.4-42.2
						c0,0-15.2-4.6-21.1-4.9c-5.9-0.3-76.4,6.6-76.1,7.2c0.4,0.5-16.3,42.7-16.3,42.7L415.3,167.2z"/>
				</g>
			</mask>
			<linearGradient id="SVGID_10_" gradientUnits="userSpaceOnUse" x1="415.8833" y1="171.6422" x2="562.0233" y2="79.6036">
				<stop  offset="0" style="stop-color:#000000"/>
				<stop  offset="1" style="stop-color:#000000"/>
			</linearGradient>
			<path class="st11" d="M415.3,167.2l6.3-32.9l16.8-27.1c0,0,39.9,24.8,83.8-4.2l16.8,30.3l5.9,33.9l0.6-39.8l-20.4-42.2
				c0,0-15.2-4.6-21.1-4.9c-5.9-0.3-76.4,6.6-76.1,7.2c0.4,0.5-16.3,42.7-16.3,42.7L415.3,167.2z"/>
			<g>
				<linearGradient id="SVGID_11_" gradientUnits="userSpaceOnUse" x1="395.8856" y1="160.0782" x2="437.7536" y2="221.044">
					<stop  offset="0" style="stop-color:#A9CCFF"/>
					<stop  offset="0.9993" style="stop-color:#FFFFFF"/>
				</linearGradient>
				<path class="st12" d="M415.3,192.4v-25.2c0,0-11.3-5.2-12.9,12.6s12.9,24.9,12.9,24.9V192.4z"/>
				<defs>
					<filter id="Adobe_OpacityMaskFilter_4_" filterUnits="userSpaceOnUse" x="407.8" y="173.2" width="7.5" height="21.8">
						<feFlood  style="flood-color:white;flood-opacity:1" result="back"/>
						<feBlend  in="SourceGraphic" in2="back" mode="normal"/>
					</filter>
				</defs>
				<mask maskUnits="userSpaceOnUse" x="407.8" y="173.2" width="7.5" height="21.8" id="SVGID_12_">
					<g class="st13">
						<defs>
							<filter id="Adobe_OpacityMaskFilter_5_" filterUnits="userSpaceOnUse" x="407.8" y="173.2" width="7.5" height="21.8">
								<feFlood  style="flood-color:white;flood-opacity:1" result="back"/>
								<feBlend  in="SourceGraphic" in2="back" mode="normal"/>
							</filter>
						</defs>
						<mask maskUnits="userSpaceOnUse" x="407.8" y="173.2" width="7.5" height="21.8" id="SVGID_12_">
							<g class="st14">
							</g>
						</mask>
						<linearGradient id="SVGID_13_" gradientUnits="userSpaceOnUse" x1="404.723" y1="181.9674" x2="427.4094" y2="186.9584">
							<stop  offset="0" style="stop-color:#000000"/>
							<stop  offset="1" style="stop-color:#FFFFFF"/>
						</linearGradient>
						<path class="st15" d="M415.2,188v-14.4c0,0-6.5-3-7.4,7.2c-0.9,10.2,7.4,14.2,7.4,14.2V188z"/>
					</g>
				</mask>
				<linearGradient id="SVGID_14_" gradientUnits="userSpaceOnUse" x1="404.723" y1="181.9674" x2="427.4094" y2="186.9584">
					<stop  offset="0" style="stop-color:#000000"/>
					<stop  offset="1" style="stop-color:#000000"/>
				</linearGradient>
				<path class="st16" d="M415.2,188v-14.4c0,0-6.5-3-7.4,7.2c-0.9,10.2,7.4,14.2,7.4,14.2V188z"/>
			</g>
			<g>
				<linearGradient id="SVGID_15_" gradientUnits="userSpaceOnUse" x1="576.5252" y1="211.3777" x2="550.0822" y2="187.1384">
					<stop  offset="0" style="stop-color:#A9CCFF"/>
					<stop  offset="0.9993" style="stop-color:#FFFFFF"/>
				</linearGradient>
				<path class="st17" d="M545.4,192.4v-25.2c0,0,10.4-5.2,11.9,12.6c1.5,17.8-11.9,24.9-11.9,24.9V192.4z"/>
				<defs>
					<filter id="Adobe_OpacityMaskFilter_6_" filterUnits="userSpaceOnUse" x="545.5" y="173.2" width="6.9" height="21.8">
						<feFlood  style="flood-color:white;flood-opacity:1" result="back"/>
						<feBlend  in="SourceGraphic" in2="back" mode="normal"/>
					</filter>
				</defs>
				<mask maskUnits="userSpaceOnUse" x="545.5" y="173.2" width="6.9" height="21.8" id="SVGID_16_">
					<g class="st18">
						<defs>
							<filter id="Adobe_OpacityMaskFilter_7_" filterUnits="userSpaceOnUse" x="545.5" y="173.2" width="6.9" height="21.8">
								<feFlood  style="flood-color:white;flood-opacity:1" result="back"/>
								<feBlend  in="SourceGraphic" in2="back" mode="normal"/>
							</filter>
						</defs>
						<mask maskUnits="userSpaceOnUse" x="545.5" y="173.2" width="6.9" height="21.8" id="SVGID_16_">
							<g class="st19">
							</g>
						</mask>
						
							<linearGradient id="SVGID_17_" gradientUnits="userSpaceOnUse" x1="608.0749" y1="182.1056" x2="629.5836" y2="186.8375" gradientTransform="matrix(-1 0 0 1 1163.364 0)">
							<stop  offset="0" style="stop-color:#000000"/>
							<stop  offset="1" style="stop-color:#FFFFFF"/>
						</linearGradient>
						<path class="st20" d="M545.5,188v-14.4c0,0,5.9-3,6.8,7.2c0.8,10.2-6.8,14.2-6.8,14.2V188z"/>
					</g>
				</mask>
				
					<linearGradient id="SVGID_18_" gradientUnits="userSpaceOnUse" x1="608.0749" y1="182.1056" x2="629.5836" y2="186.8375" gradientTransform="matrix(-1 0 0 1 1163.364 0)">
					<stop  offset="0" style="stop-color:#000000"/>
					<stop  offset="1" style="stop-color:#000000"/>
				</linearGradient>
				<path class="st21" d="M545.5,188v-14.4c0,0,5.9-3,6.8,7.2c0.8,10.2-6.8,14.2-6.8,14.2V188z"/>
			</g>
			<polygon class="st22" points="415.3,167.2 394.4,89.1 415.2,67.9 435,98.1 416.6,133.9 			"/>
			<polygon class="st22" points="544.9,167.2 565.7,89.1 545,67.9 525.1,98.1 543.6,133.9 			"/>
			<path class="st22" d="M435,98.1c0,0,33.7,20.3,90.1,0L545,67.9c0,0,12.1-15.2,6.5-42.2l-31.3,6.6l5-12.5c0,0-76.2-17.8-81.5,26.4
				c0,0-3.3-14.5,12.5-26.4c0,0-51.6,13.9-41,48.2L435,98.1z"/>
		</g>
		<path class="st22" d="M415.3,204.6c0,0,43.8,43.2,45.7,78.8h17.6v36.7c0,0-23.8,2-31.6-9.2c-7.8-11.2-11.9-20-11.9-20l-23.4-43.1
			L415.3,204.6z"/>
		<path class="st22" d="M545.3,204.6c0,0-43.8,43.2-45.7,78.8H482v36.7c0,0,23.8,2,31.6-9.2c7.8-11.2,11.9-20,11.9-20l23.4-43.1
			L545.3,204.6z"/>
		<path class="st22" d="M465.8,319.7c0,0,16,0.9,26,0.5c10-0.3-6.9-36.8-6.9-36.8H474L465.8,319.7z"/>
		<path class="st22" d="M448.8,248.2l18.9-11.9h12.6l-0.1,8.7c0,0-22.8,6.2-25.8,14.5L448.8,248.2z"/>
		<path class="st22" d="M512,248.2L493,236.3h-12.6l0.1,8.7c0,0,22.8,6.2,25.8,14.5L512,248.2z"/>
		<defs>
			<filter id="Adobe_OpacityMaskFilter_8_" filterUnits="userSpaceOnUse" x="465.8" y="184.1" width="27.2" height="52.1">
				<feFlood  style="flood-color:white;flood-opacity:1" result="back"/>
				<feBlend  in="SourceGraphic" in2="back" mode="normal"/>
			</filter>
		</defs>
		<mask maskUnits="userSpaceOnUse" x="465.8" y="184.1" width="27.2" height="52.1" id="SVGID_19_">
			<g class="st23">
				<defs>
					<filter id="Adobe_OpacityMaskFilter_9_" filterUnits="userSpaceOnUse" x="465.8" y="184.1" width="27.2" height="52.1">
						<feFlood  style="flood-color:white;flood-opacity:1" result="back"/>
						<feBlend  in="SourceGraphic" in2="back" mode="normal"/>
					</filter>
				</defs>
				<mask maskUnits="userSpaceOnUse" x="465.8" y="184.1" width="27.2" height="52.1" id="SVGID_19_">
					<g class="st24">
					</g>
				</mask>
				<linearGradient id="SVGID_20_" gradientUnits="userSpaceOnUse" x1="478.9882" y1="197.8361" x2="479.9246" y2="267.7548">
					<stop  offset="0" style="stop-color:#000000"/>
					<stop  offset="1" style="stop-color:#FFFFFF"/>
				</linearGradient>
				<polygon class="st25" points="465.8,222.9 473.1,232.2 487.1,232.2 485.9,184.1 493,236.3 467.8,236.3 				"/>
			</g>
		</mask>
		<linearGradient id="SVGID_21_" gradientUnits="userSpaceOnUse" x1="478.9882" y1="197.8361" x2="479.9246" y2="267.7548">
			<stop  offset="0" style="stop-color:#000000"/>
			<stop  offset="1" style="stop-color:#000000"/>
		</linearGradient>
		<polygon class="st26" points="465.8,222.9 473.1,232.2 487.1,232.2 485.9,184.1 493,236.3 467.8,236.3 		"/>
	</g>
	<linearGradient id="SVGID_22_" gradientUnits="userSpaceOnUse" x1="336.5769" y1="415.5047" x2="732.3649" y2="948.8654">
		<stop  offset="1.566510e-02" style="stop-color:#FFFFFF"/>
		<stop  offset="1" style="stop-color:#B4B4B5"/>
	</linearGradient>
	<polygon class="st27" points="532.5,353.4 478.6,398.9 424.3,349 314.9,445.7 384.1,811.8 384.1,884.7 571.6,884.7 573,811.8 
		573,811.8 628.9,404.3 	"/>
	<linearGradient id="SVGID_23_" gradientUnits="userSpaceOnUse" x1="321.4316" y1="442.9515" x2="321.4316" y2="442.9515">
		<stop  offset="0" style="stop-color:#FF9700"/>
		<stop  offset="1" style="stop-color:#FFC543"/>
	</linearGradient>
	<path class="st28" d="M321.4,443"/>
	<linearGradient id="SVGID_24_" gradientUnits="userSpaceOnUse" x1="472.4462" y1="784.4884" x2="493.6108" y2="1571.8317">
		<stop  offset="3.285260e-03" style="stop-color:#0037FF"/>
		<stop  offset="0.9962" style="stop-color:#50FF9F"/>
	</linearGradient>
	<rect x="384.1" y="884.7" class="st29" width="185.1" height="113.2"/>
	<defs>
		<filter id="Adobe_OpacityMaskFilter_10_" filterUnits="userSpaceOnUse" x="468.6" y="172.3" width="21.4" height="57">
			<feFlood  style="flood-color:white;flood-opacity:1" result="back"/>
			<feBlend  in="SourceGraphic" in2="back" mode="normal"/>
		</filter>
	</defs>
	<mask maskUnits="userSpaceOnUse" x="468.6" y="172.3" width="21.4" height="57" id="SVGID_25_">
		<g class="st30">
			<defs>
				<filter id="Adobe_OpacityMaskFilter_11_" filterUnits="userSpaceOnUse" x="468.6" y="172.3" width="21.4" height="57">
					<feFlood  style="flood-color:white;flood-opacity:1" result="back"/>
					<feBlend  in="SourceGraphic" in2="back" mode="normal"/>
				</filter>
			</defs>
			<mask maskUnits="userSpaceOnUse" x="468.6" y="172.3" width="21.4" height="57" id="SVGID_25_">
				<g class="st31">
				</g>
			</mask>
			<linearGradient id="SVGID_26_" gradientUnits="userSpaceOnUse" x1="479.9152" y1="145.8533" x2="478.1515" y2="224.5171">
				<stop  offset="0" style="stop-color:#000000"/>
				<stop  offset="0.9993" style="stop-color:#FFFFFF"/>
			</linearGradient>
			<polygon class="st32" points="468.6,172.3 472.1,192 472.1,229.3 485.3,229.3 485.3,192 490,172.3 			"/>
		</g>
	</mask>
	<linearGradient id="SVGID_27_" gradientUnits="userSpaceOnUse" x1="479.9152" y1="145.8533" x2="478.1515" y2="224.5171">
		<stop  offset="0" style="stop-color:#A9CCFF"/>
		<stop  offset="0.9993" style="stop-color:#FFFFFF"/>
	</linearGradient>
	<polygon class="st33" points="468.6,172.3 472.1,192 472.1,229.3 485.3,229.3 485.3,192 490,172.3 	"/>
	<path class="st34" d="M444.8,80.1c0,0,18.7,26.9,50.1,18c31.5-8.9,50.5-55.7,50.5-55.7l-40.2,28.8l19.9-20.6L495,67.9l20.5-33.6
		c0,0-47.2-4.4-56.5,20.6s7.8,35,7.8,35S455,89.8,444.8,80.1z"/>
	<linearGradient id="SVGID_28_" gradientUnits="userSpaceOnUse" x1="421.1473" y1="785.8672" x2="442.3119" y2="1573.2111">
		<stop  offset="3.285260e-03" style="stop-color:#0037FF"/>
		<stop  offset="0.9962" style="stop-color:#50FF9F"/>
	</linearGradient>
	<polygon class="st35" points="469.8,1072.8 391.1,1072.8 383.5,991.3 469.8,991.3 	"/>
	<linearGradient id="SVGID_29_" gradientUnits="userSpaceOnUse" x1="519.413" y1="783.2258" x2="540.5776" y2="1570.5695">
		<stop  offset="3.285260e-03" style="stop-color:#0037FF"/>
		<stop  offset="0.9962" style="stop-color:#50FF9F"/>
	</linearGradient>
	<polygon class="st36" points="563.4,1072.8 483,1072.8 483,991.3 569.2,991.3 	"/>
	<rect x="474" y="270.4" class="st22" width="12.7" height="16.7"/>
	<polygon class="st37" points="478.6,398.9 435,429.8 415.3,357 424.3,349 	"/>
	<polygon class="st37" points="478.4,398.9 521.9,429.8 541.7,357 532.6,349 	"/>
	<defs>
		<filter id="Adobe_OpacityMaskFilter_12_" filterUnits="userSpaceOnUse" x="485.9" y="169.3" width="51.7" height="25.7">
			<feFlood  style="flood-color:white;flood-opacity:1" result="back"/>
			<feBlend  in="SourceGraphic" in2="back" mode="normal"/>
		</filter>
	</defs>
	<mask maskUnits="userSpaceOnUse" x="485.9" y="169.3" width="51.7" height="25.7" id="SVGID_30_">
		<g class="st38">
			<defs>
				<filter id="Adobe_OpacityMaskFilter_13_" filterUnits="userSpaceOnUse" x="485.9" y="169.3" width="51.7" height="25.7">
					<feFlood  style="flood-color:white;flood-opacity:1" result="back"/>
					<feBlend  in="SourceGraphic" in2="back" mode="normal"/>
				</filter>
			</defs>
			<mask maskUnits="userSpaceOnUse" x="485.9" y="169.3" width="51.7" height="25.7" id="SVGID_30_">
				<g class="st39">
				</g>
			</mask>
			<linearGradient id="SVGID_31_" gradientUnits="userSpaceOnUse" x1="513.2531" y1="185.9385" x2="492.931" y2="136.9699">
				<stop  offset="0" style="stop-color:#000000"/>
				<stop  offset="1" style="stop-color:#FFFFFF"/>
			</linearGradient>
			<polygon class="st40" points="485.9,184.1 496.2,169.3 537.6,173.2 487.4,195 			"/>
		</g>
	</mask>
	<linearGradient id="SVGID_32_" gradientUnits="userSpaceOnUse" x1="513.2531" y1="185.9385" x2="492.931" y2="136.9699">
		<stop  offset="0" style="stop-color:#000000"/>
		<stop  offset="1" style="stop-color:#000000"/>
	</linearGradient>
	<polygon class="st41" points="485.9,184.1 496.2,169.3 537.6,173.2 487.4,195 	"/>
	<defs>
		<filter id="Adobe_OpacityMaskFilter_14_" filterUnits="userSpaceOnUse" x="420.6" y="169.3" width="51.7" height="25.7">
			<feFlood  style="flood-color:white;flood-opacity:1" result="back"/>
			<feBlend  in="SourceGraphic" in2="back" mode="normal"/>
		</filter>
	</defs>
	<mask maskUnits="userSpaceOnUse" x="420.6" y="169.3" width="51.7" height="25.7" id="SVGID_33_">
		<g class="st42">
			<defs>
				<filter id="Adobe_OpacityMaskFilter_15_" filterUnits="userSpaceOnUse" x="420.6" y="169.3" width="51.7" height="25.7">
					<feFlood  style="flood-color:white;flood-opacity:1" result="back"/>
					<feBlend  in="SourceGraphic" in2="back" mode="normal"/>
				</filter>
			</defs>
			<mask maskUnits="userSpaceOnUse" x="420.6" y="169.3" width="51.7" height="25.7" id="SVGID_33_">
				<g class="st43">
				</g>
			</mask>
			
				<linearGradient id="SVGID_34_" gradientUnits="userSpaceOnUse" x1="-1940.4459" y1="185.9385" x2="-1960.7679" y2="136.9699" gradientTransform="matrix(-1 0 0 1 -1495.494 0)">
				<stop  offset="0" style="stop-color:#000000"/>
				<stop  offset="1" style="stop-color:#FFFFFF"/>
			</linearGradient>
			<polygon class="st44" points="472.3,184.1 462,169.3 420.6,173.2 470.8,195 			"/>
		</g>
	</mask>
	
		<linearGradient id="SVGID_35_" gradientUnits="userSpaceOnUse" x1="-1940.4459" y1="185.9385" x2="-1960.7679" y2="136.9699" gradientTransform="matrix(-1 0 0 1 -1495.494 0)">
		<stop  offset="0" style="stop-color:#000000"/>
		<stop  offset="1" style="stop-color:#000000"/>
	</linearGradient>
	<polygon class="st45" points="472.3,184.1 462,169.3 420.6,173.2 470.8,195 	"/>
	<linearGradient id="SVGID_36_" gradientUnits="userSpaceOnUse" x1="530.3149" y1="219.3666" x2="799.113" y2="1233.1793">
		<stop  offset="3.285260e-03" style="stop-color:#0037FF"/>
		<stop  offset="0.9962" style="stop-color:#50FF9F"/>
	</linearGradient>
	<path class="st46" d="M541.7,357c0,0,6.9,379.6,67.7,486.3c60.7,106.8,164.5,97.9,214.5,140.1c0,0-1-64.6-67.6-112.6
		S604.5,814,601.5,740.5c-2.9-73.5,51.3-336.4,51.3-336.4L541.7,357z"/>
	<defs>
		<filter id="Adobe_OpacityMaskFilter_16_" filterUnits="userSpaceOnUse" x="415.3" y="130.3" width="126.5" height="72.9">
			<feFlood  style="flood-color:white;flood-opacity:1" result="back"/>
			<feBlend  in="SourceGraphic" in2="back" mode="normal"/>
		</filter>
	</defs>
	<mask maskUnits="userSpaceOnUse" x="415.3" y="130.3" width="126.5" height="72.9" id="SVGID_37_">
		<g class="st47">
			<defs>
				<filter id="Adobe_OpacityMaskFilter_17_" filterUnits="userSpaceOnUse" x="415.3" y="130.3" width="126.5" height="72.9">
					<feFlood  style="flood-color:white;flood-opacity:1" result="back"/>
					<feBlend  in="SourceGraphic" in2="back" mode="normal"/>
				</filter>
			</defs>
			<mask maskUnits="userSpaceOnUse" x="415.3" y="130.3" width="126.5" height="72.9" id="SVGID_37_">
				<g class="st48">
				</g>
			</mask>
			<linearGradient id="SVGID_38_" gradientUnits="userSpaceOnUse" x1="478.0722" y1="166.6086" x2="449.852" y2="84.77">
				<stop  offset="0" style="stop-color:#000000"/>
				<stop  offset="1" style="stop-color:#FFFFFF"/>
			</linearGradient>
			<path class="st49" d="M522.1,130.3l19.6,47.9c0,0-48.4,38.6-85.9,19.8c-37.5-18.7-40.6-41.5-40.6-41.5l25.5-22.4L522.1,130.3z"/>
		</g>
	</mask>
	<linearGradient id="SVGID_39_" gradientUnits="userSpaceOnUse" x1="478.0722" y1="166.6086" x2="449.852" y2="84.77">
		<stop  offset="0" style="stop-color:#000000"/>
		<stop  offset="1" style="stop-color:#000000"/>
	</linearGradient>
	<path class="st50" d="M522.1,130.3l19.6,47.9c0,0-48.4,38.6-85.9,19.8c-37.5-18.7-40.6-41.5-40.6-41.5l25.5-22.4L522.1,130.3z"/>
	<linearGradient id="SVGID_40_" gradientUnits="userSpaceOnUse" x1="441.2447" y1="155.7584" x2="435.7357" y2="123.4392">
		<stop  offset="0" style="stop-color:#A9CCFF"/>
		<stop  offset="0.9993" style="stop-color:#FFFFFF"/>
	</linearGradient>
	<path class="st51" d="M355.7,148.9l87.2-22l79.1,3.4c0,0-17,10.4-33,4.1l-56,13.7c0,0,38.1-10,44.5-5.6l-44.1,15.1
		c0,0-65.3-6.6-75.5,9.5L355.7,148.9z"/>
	<linearGradient id="SVGID_41_" gradientUnits="userSpaceOnUse" x1="357.631" y1="829.7982" x2="88.8322" y2="-101.4712">
		<stop  offset="3.285260e-03" style="stop-color:#0037FF"/>
		<stop  offset="0.9962" style="stop-color:#50FF9F"/>
	</linearGradient>
	<path class="st52" d="M364.5,884.7c3.9,41.6,11.8,69.3,11.8,69.3s-49.9-26.4-49-90.1c1-63.7,19.7-155,12.4-193.7l-24.8-224.5
		c0,0-200.1-32.6-277.8-82.9h0c-20.3-13.1-32.2-27.4-30.1-42.6c10.3-73.6,358-177.6,358-177.6v26.7C252.9,300,99.7,322.4,99.7,322.4
		L415.2,357C415.2,357,354.1,773.6,364.5,884.7z"/>
	<polygon class="st37" points="365.1,142.6 365.1,169.3 377.2,166.8 377.2,139.7 	"/>
	<linearGradient id="SVGID_42_" gradientUnits="userSpaceOnUse" x1="366.2335" y1="423.5339" x2="91.0294" y2="393.1735">
		<stop  offset="0" style="stop-color:#001D56"/>
		<stop  offset="0.9986" style="stop-color:#1A66FF"/>
	</linearGradient>
	<path class="st53" d="M314.9,445.7c0,0-200.1-32.6-277.8-82.9c148.6,49.3,272.5,26.6,272.5,26.6L314.9,445.7z"/>
	<defs>
		<filter id="Adobe_OpacityMaskFilter_18_" filterUnits="userSpaceOnUse" x="466.4" y="435" width="112.1" height="376.8">
			<feFlood  style="flood-color:white;flood-opacity:1" result="back"/>
			<feBlend  in="SourceGraphic" in2="back" mode="normal"/>
		</filter>
	</defs>
	<mask maskUnits="userSpaceOnUse" x="466.4" y="435" width="112.1" height="376.8" id="SVGID_43_">
		<g class="st54">
			<defs>
				<filter id="Adobe_OpacityMaskFilter_19_" filterUnits="userSpaceOnUse" x="466.4" y="435" width="112.1" height="376.8">
					<feFlood  style="flood-color:white;flood-opacity:1" result="back"/>
					<feBlend  in="SourceGraphic" in2="back" mode="normal"/>
				</filter>
			</defs>
			<mask maskUnits="userSpaceOnUse" x="466.4" y="435" width="112.1" height="376.8" id="SVGID_43_">
				<g class="st55">
				</g>
			</mask>
			<linearGradient id="SVGID_44_" gradientUnits="userSpaceOnUse" x1="460.8324" y1="600.7888" x2="966.1885" y2="766.3024">
				<stop  offset="0" style="stop-color:#000000"/>
				<stop  offset="1" style="stop-color:#FFFFFF"/>
			</linearGradient>
			<path class="st56" d="M486.8,435c0,0-28.5,269.3,86.2,319.3l5.5,17.5l-5.5,40.1c0,0-68.8-21.3-92.6-83
				c-23.8-61.7-10.9-189.2-6.4-259.5L486.8,435z"/>
		</g>
	</mask>
	<linearGradient id="SVGID_45_" gradientUnits="userSpaceOnUse" x1="460.8324" y1="600.7888" x2="966.1885" y2="766.3024">
		<stop  offset="0" style="stop-color:#000000"/>
		<stop  offset="1" style="stop-color:#000000"/>
	</linearGradient>
	<path class="st57" d="M486.8,435c0,0-28.5,269.3,86.2,319.3l5.5,17.5l-5.5,40.1c0,0-68.8-21.3-92.6-83
		c-23.8-61.7-10.9-189.2-6.4-259.5L486.8,435z"/>
	<linearGradient id="SVGID_46_" gradientUnits="userSpaceOnUse" x1="458.3773" y1="586.3959" x2="847.3486" y2="586.3959">
		<stop  offset="0" style="stop-color:#FF5586"/>
		<stop  offset="0.9936" style="stop-color:#990ADD"/>
	</linearGradient>
	<path class="st58" d="M478.4,398.9l-20,14.4L474,435c0,0-49.6,231.1,36,305.6c85.6,74.4,210.5-1.5,285.9,16.2l51.4-21.1l-43.1-42.1
		c0,0-62.2-9.8-132.2,22.5c-46.1,21.3-179.4,15-188.7-119.5C474,462.2,486.8,435,486.8,435l16.7-18.3L478.4,398.9z"/>
	<defs>
		<filter id="Adobe_OpacityMaskFilter_20_" filterUnits="userSpaceOnUse" x="493" y="697.2" width="354.3" height="71.6">
			<feFlood  style="flood-color:white;flood-opacity:1" result="back"/>
			<feBlend  in="SourceGraphic" in2="back" mode="normal"/>
		</filter>
	</defs>
	<mask maskUnits="userSpaceOnUse" x="493" y="697.2" width="354.3" height="71.6" id="SVGID_47_">
		<g class="st59">
			<defs>
				<filter id="Adobe_OpacityMaskFilter_21_" filterUnits="userSpaceOnUse" x="493" y="697.2" width="354.3" height="71.6">
					<feFlood  style="flood-color:white;flood-opacity:1" result="back"/>
					<feBlend  in="SourceGraphic" in2="back" mode="normal"/>
				</filter>
			</defs>
			<mask maskUnits="userSpaceOnUse" x="493" y="697.2" width="354.3" height="71.6" id="SVGID_47_">
				<g class="st60">
				</g>
			</mask>
			<linearGradient id="SVGID_48_" gradientUnits="userSpaceOnUse" x1="565.6944" y1="707.498" x2="1519.115" y2="975.6021">
				<stop  offset="0" style="stop-color:#000000"/>
				<stop  offset="1" style="stop-color:#FFFFFF"/>
			</linearGradient>
			<path class="st61" d="M847.3,735.6c0,0-67.5-36.1-166.6-3.9S517.7,747.9,493,697.2c0,0,40.2,102.1,189.8,62.4
				c61-16.2,113.2-2.9,113.2-2.9L847.3,735.6z"/>
		</g>
	</mask>
	<linearGradient id="SVGID_49_" gradientUnits="userSpaceOnUse" x1="565.6944" y1="707.498" x2="1519.115" y2="975.6021">
		<stop  offset="0" style="stop-color:#000000"/>
		<stop  offset="1" style="stop-color:#000000"/>
	</linearGradient>
	<path class="st62" d="M847.3,735.6c0,0-67.5-36.1-166.6-3.9S517.7,747.9,493,697.2c0,0,40.2,102.1,189.8,62.4
		c61-16.2,113.2-2.9,113.2-2.9L847.3,735.6z"/>
</g>
</svg>
