<?xml version="1.0" encoding="utf-8"?>
<!-- Generator: Adobe Illustrator 24.3.0, SVG Export Plug-In . SVG Version: 6.00 Build 0)  -->
<svg version="1.1" id="Layer_1" xmlns="http://www.w3.org/2000/svg" xmlns:xlink="http://www.w3.org/1999/xlink" x="0px" y="0px"
	 viewBox="0 0 529.1 664.6" style="enable-background:new 0 0 529.1 664.6;" xml:space="preserve">
<style type="text/css">
	.st0{fill:url(#SVGID_1_);}
	.st1{fill:url(#SVGID_2_);}
	.st2{fill:url(#SVGID_3_);}
	.st3{filter:url(#Adobe_OpacityMaskFilter);}
	.st4{filter:url(#Adobe_OpacityMaskFilter_1_);}
	.st5{mask:url(#SVGID_4_);fill:url(#SVGID_5_);}
	.st6{fill:url(#SVGID_6_);}
	.st7{fill:url(#SVGID_7_);}
	.st8{filter:url(#Adobe_OpacityMaskFilter_2_);}
	.st9{filter:url(#Adobe_OpacityMaskFilter_3_);}
	.st10{mask:url(#SVGID_8_);fill:url(#SVGID_9_);}
	.st11{opacity:0.32;fill:url(#SVGID_10_);}
	.st12{fill:url(#SVGID_11_);}
	.st13{filter:url(#Adobe_OpacityMaskFilter_4_);}
	.st14{filter:url(#Adobe_OpacityMaskFilter_5_);}
	.st15{mask:url(#SVGID_12_);fill:url(#SVGID_13_);}
	.st16{fill:url(#SVGID_14_);}
	.st17{fill:url(#SVGID_15_);}
	.st18{filter:url(#Adobe_OpacityMaskFilter_6_);}
	.st19{filter:url(#Adobe_OpacityMaskFilter_7_);}
	.st20{mask:url(#SVGID_16_);fill:url(#SVGID_17_);}
	.st21{fill:url(#SVGID_18_);}
	.st22{fill:#0049FF;}
	.st23{filter:url(#Adobe_OpacityMaskFilter_8_);}
	.st24{filter:url(#Adobe_OpacityMaskFilter_9_);}
	.st25{mask:url(#SVGID_19_);fill:url(#SVGID_20_);}
	.st26{opacity:0.17;fill:url(#SVGID_21_);}
	.st27{fill:url(#SVGID_22_);}
	.st28{fill:url(#SVGID_23_);}
	.st29{fill:url(#SVGID_24_);}
	.st30{filter:url(#Adobe_OpacityMaskFilter_10_);}
	.st31{filter:url(#Adobe_OpacityMaskFilter_11_);}
	.st32{mask:url(#SVGID_25_);fill:url(#SVGID_26_);}
	.st33{fill:url(#SVGID_27_);}
	.st34{opacity:0.39;fill:#4382FF;}
	.st35{fill:url(#SVGID_28_);}
	.st36{fill:url(#SVGID_29_);}
	.st37{fill:#FFFFFF;}
	.st38{filter:url(#Adobe_OpacityMaskFilter_12_);}
	.st39{filter:url(#Adobe_OpacityMaskFilter_13_);}
	.st40{mask:url(#SVGID_30_);fill:url(#SVGID_31_);}
	.st41{opacity:0.17;fill:url(#SVGID_32_);}
	.st42{filter:url(#Adobe_OpacityMaskFilter_14_);}
	.st43{filter:url(#Adobe_OpacityMaskFilter_15_);}
	.st44{mask:url(#SVGID_33_);fill:url(#SVGID_34_);}
	.st45{opacity:0.17;fill:url(#SVGID_35_);}
	.st46{fill:url(#SVGID_36_);}
	.st47{filter:url(#Adobe_OpacityMaskFilter_16_);}
	.st48{filter:url(#Adobe_OpacityMaskFilter_17_);}
	.st49{mask:url(#SVGID_37_);fill:url(#SVGID_38_);}
	.st50{opacity:0.65;fill:url(#SVGID_39_);}
	.st51{fill:url(#SVGID_40_);}
	.st52{fill:url(#SVGID_41_);}
	.st53{opacity:0.77;fill:url(#SVGID_42_);}
	.st54{filter:url(#Adobe_OpacityMaskFilter_18_);}
	.st55{filter:url(#Adobe_OpacityMaskFilter_19_);}
	.st56{mask:url(#SVGID_43_);fill:url(#SVGID_44_);}
	.st57{fill:url(#SVGID_45_);}
	.st58{fill:url(#SVGID_46_);}
	.st59{filter:url(#Adobe_OpacityMaskFilter_20_);}
	.st60{filter:url(#Adobe_OpacityMaskFilter_21_);}
	.st61{mask:url(#SVGID_47_);fill:url(#SVGID_48_);}
	.st62{opacity:0.61;fill:url(#SVGID_49_);}
</style>
<g>
	<linearGradient id="SVGID_1_" gradientUnits="userSpaceOnUse" x1="356.289" y1="388.8779" x2="491.7743" y2="388.8779">
		<stop  offset="3.285260e-03" style="stop-color:#0037FF"/>
		<stop  offset="0.9962" style="stop-color:#50FF9F"/>
	</linearGradient>
	<path class="st0" d="M406.5,244.4l85.3,193.1l-130,95.9l-5.5-32.8c0,0,51.5-61.4,82.9-79l-53.4-78.6L406.5,244.4z"/>
	<linearGradient id="SVGID_2_" gradientUnits="userSpaceOnUse" x1="363.0998" y1="585.6319" x2="132.2846" y2="287.1103">
		<stop  offset="0" style="stop-color:#000000"/>
		<stop  offset="0.9986" style="stop-color:#1A66FF"/>
	</linearGradient>
	<path class="st1" d="M513.9,608.5c0,0-88.7-21.5-122.5-13.2c-35.3,8.7-153-42.8-158.8-5.2c0,0-29.9-31.7-21.5-73.2
		c8.3-41.5,18-71.1,18-71.1s13.9-11,23.3-7.3c9.4,3.7,64.3,43.4,64.3,43.4l45.1-11.1C361.8,470.5,498.2,577.4,513.9,608.5z"/>
	<g>
		<linearGradient id="SVGID_3_" gradientUnits="userSpaceOnUse" x1="336.9671" y1="208.0404" x2="229.2235" y2="181.6587">
			<stop  offset="0" style="stop-color:#A9CCFF"/>
			<stop  offset="0.9993" style="stop-color:#FFFFFF"/>
		</linearGradient>
		<polygon class="st2" points="296.9,165.6 264.6,151 262.9,245 296.9,250.1 330.8,247.5 329.2,151 		"/>
		<defs>
			<filter id="Adobe_OpacityMaskFilter" filterUnits="userSpaceOnUse" x="264.4" y="163.7" width="65.9" height="77.4">
				<feFlood  style="flood-color:white;flood-opacity:1" result="back"/>
				<feBlend  in="SourceGraphic" in2="back" mode="normal"/>
			</filter>
		</defs>
		<mask maskUnits="userSpaceOnUse" x="264.4" y="163.7" width="65.9" height="77.4" id="SVGID_4_">
			<g class="st3">
				<defs>
					<filter id="Adobe_OpacityMaskFilter_1_" filterUnits="userSpaceOnUse" x="264.4" y="163.7" width="65.9" height="77.4">
						<feFlood  style="flood-color:white;flood-opacity:1" result="back"/>
						<feBlend  in="SourceGraphic" in2="back" mode="normal"/>
					</filter>
				</defs>
				<mask maskUnits="userSpaceOnUse" x="264.4" y="163.7" width="65.9" height="77.4" id="SVGID_4_">
					<g class="st4">
					</g>
				</mask>
				<linearGradient id="SVGID_5_" gradientUnits="userSpaceOnUse" x1="292.0437" y1="216.0929" x2="312.0478" y2="110.6872">
					<stop  offset="0" style="stop-color:#000000"/>
					<stop  offset="1" style="stop-color:#FFFFFF"/>
				</linearGradient>
				<polygon class="st5" points="264.4,163.7 296.9,241.1 330.3,213 329.6,166.3 				"/>
			</g>
		</mask>
		<linearGradient id="SVGID_6_" gradientUnits="userSpaceOnUse" x1="292.0437" y1="216.0929" x2="312.0478" y2="110.6872">
			<stop  offset="0" style="stop-color:#000000"/>
			<stop  offset="1" style="stop-color:#000000"/>
		</linearGradient>
		<polygon class="st6" points="264.4,163.7 296.9,241.1 330.3,213 329.6,166.3 		"/>
		<g>
			<linearGradient id="SVGID_7_" gradientUnits="userSpaceOnUse" x1="254.9996" y1="49.3473" x2="340.8626" y2="149.5208">
				<stop  offset="0" style="stop-color:#A9CCFF"/>
				<stop  offset="0.9993" style="stop-color:#FFFFFF"/>
			</linearGradient>
			<polygon class="st7" points="298.1,52.1 257.1,52.1 257.1,140.8 287.4,182.4 298.1,182.4 308.7,182.4 339,140.8 339,52.1 			"/>
			<defs>
				<filter id="Adobe_OpacityMaskFilter_2_" filterUnits="userSpaceOnUse" x="254.9" y="40.8" width="84.1" height="54.7">
					<feFlood  style="flood-color:white;flood-opacity:1" result="back"/>
					<feBlend  in="SourceGraphic" in2="back" mode="normal"/>
				</filter>
			</defs>
			<mask maskUnits="userSpaceOnUse" x="254.9" y="40.8" width="84.1" height="54.7" id="SVGID_8_">
				<g class="st8">
					<defs>
						<filter id="Adobe_OpacityMaskFilter_3_" filterUnits="userSpaceOnUse" x="254.9" y="40.8" width="84.1" height="54.7">
							<feFlood  style="flood-color:white;flood-opacity:1" result="back"/>
							<feBlend  in="SourceGraphic" in2="back" mode="normal"/>
						</filter>
					</defs>
					<mask maskUnits="userSpaceOnUse" x="254.9" y="40.8" width="84.1" height="54.7" id="SVGID_8_">
						<g class="st9">
						</g>
					</mask>
					<linearGradient id="SVGID_9_" gradientUnits="userSpaceOnUse" x1="257.5422" y1="98.2768" x2="349.3866" y2="40.4335">
						<stop  offset="0" style="stop-color:#000000"/>
						<stop  offset="1" style="stop-color:#FFFFFF"/>
					</linearGradient>
					<path class="st10" d="M257.1,95.5l3.9-20.7l10.6-17c0,0,25.1,15.6,52.7-2.6l10.6,19.1l3.7,21.3l0.4-25l-12.8-26.5
						c0,0-9.5-2.9-13.3-3.1c-3.7-0.2-48,4.2-47.8,4.5c0.2,0.3-10.3,26.8-10.3,26.8L257.1,95.5z"/>
				</g>
			</mask>
			<linearGradient id="SVGID_10_" gradientUnits="userSpaceOnUse" x1="257.5422" y1="98.2768" x2="349.3866" y2="40.4335">
				<stop  offset="0" style="stop-color:#000000"/>
				<stop  offset="1" style="stop-color:#000000"/>
			</linearGradient>
			<path class="st11" d="M257.1,95.5l3.9-20.7l10.6-17c0,0,25.1,15.6,52.7-2.6l10.6,19.1l3.7,21.3l0.4-25l-12.8-26.5
				c0,0-9.5-2.9-13.3-3.1c-3.7-0.2-48,4.2-47.8,4.5c0.2,0.3-10.3,26.8-10.3,26.8L257.1,95.5z"/>
			<g>
				<linearGradient id="SVGID_11_" gradientUnits="userSpaceOnUse" x1="244.9742" y1="91.0092" x2="271.287" y2="129.3244">
					<stop  offset="0" style="stop-color:#A9CCFF"/>
					<stop  offset="0.9993" style="stop-color:#FFFFFF"/>
				</linearGradient>
				<path class="st12" d="M257.1,111.3V95.5c0,0-7.1-3.2-8.1,7.9c-1,11.2,8.1,15.6,8.1,15.6V111.3z"/>
				<defs>
					<filter id="Adobe_OpacityMaskFilter_4_" filterUnits="userSpaceOnUse" x="252.4" y="99.3" width="4.7" height="13.7">
						<feFlood  style="flood-color:white;flood-opacity:1" result="back"/>
						<feBlend  in="SourceGraphic" in2="back" mode="normal"/>
					</filter>
				</defs>
				<mask maskUnits="userSpaceOnUse" x="252.4" y="99.3" width="4.7" height="13.7" id="SVGID_12_">
					<g class="st13">
						<defs>
							<filter id="Adobe_OpacityMaskFilter_5_" filterUnits="userSpaceOnUse" x="252.4" y="99.3" width="4.7" height="13.7">
								<feFlood  style="flood-color:white;flood-opacity:1" result="back"/>
								<feBlend  in="SourceGraphic" in2="back" mode="normal"/>
							</filter>
						</defs>
						<mask maskUnits="userSpaceOnUse" x="252.4" y="99.3" width="4.7" height="13.7" id="SVGID_12_">
							<g class="st14">
							</g>
						</mask>
						<linearGradient id="SVGID_13_" gradientUnits="userSpaceOnUse" x1="250.5283" y1="104.7659" x2="264.7859" y2="107.9026">
							<stop  offset="0" style="stop-color:#000000"/>
							<stop  offset="1" style="stop-color:#FFFFFF"/>
						</linearGradient>
						<path class="st15" d="M257.1,108.6v-9.1c0,0-4.1-1.9-4.6,4.5c-0.6,6.4,4.6,8.9,4.6,8.9V108.6z"/>
					</g>
				</mask>
				<linearGradient id="SVGID_14_" gradientUnits="userSpaceOnUse" x1="250.5283" y1="104.7659" x2="264.7859" y2="107.9026">
					<stop  offset="0" style="stop-color:#000000"/>
					<stop  offset="1" style="stop-color:#000000"/>
				</linearGradient>
				<path class="st16" d="M257.1,108.6v-9.1c0,0-4.1-1.9-4.6,4.5c-0.6,6.4,4.6,8.9,4.6,8.9V108.6z"/>
			</g>
			<g>
				<linearGradient id="SVGID_15_" gradientUnits="userSpaceOnUse" x1="358.5006" y1="123.2494" x2="341.882" y2="108.0157">
					<stop  offset="0" style="stop-color:#A9CCFF"/>
					<stop  offset="0.9993" style="stop-color:#FFFFFF"/>
				</linearGradient>
				<path class="st17" d="M339,111.3V95.5c0,0,6.5-3.2,7.5,7.9c0.9,11.2-7.5,15.6-7.5,15.6V111.3z"/>
				<defs>
					<filter id="Adobe_OpacityMaskFilter_6_" filterUnits="userSpaceOnUse" x="339" y="99.3" width="4.3" height="13.7">
						<feFlood  style="flood-color:white;flood-opacity:1" result="back"/>
						<feBlend  in="SourceGraphic" in2="back" mode="normal"/>
					</filter>
				</defs>
				<mask maskUnits="userSpaceOnUse" x="339" y="99.3" width="4.3" height="13.7" id="SVGID_16_">
					<g class="st18">
						<defs>
							<filter id="Adobe_OpacityMaskFilter_7_" filterUnits="userSpaceOnUse" x="339" y="99.3" width="4.3" height="13.7">
								<feFlood  style="flood-color:white;flood-opacity:1" result="back"/>
								<feBlend  in="SourceGraphic" in2="back" mode="normal"/>
							</filter>
						</defs>
						<mask maskUnits="userSpaceOnUse" x="339" y="99.3" width="4.3" height="13.7" id="SVGID_16_">
							<g class="st19">
							</g>
						</mask>
						
							<linearGradient id="SVGID_17_" gradientUnits="userSpaceOnUse" x1="268.2734" y1="104.8528" x2="281.791" y2="107.8266" gradientTransform="matrix(-1 0 0 1 613.4279 0)">
							<stop  offset="0" style="stop-color:#000000"/>
							<stop  offset="1" style="stop-color:#FFFFFF"/>
						</linearGradient>
						<path class="st20" d="M339,108.6v-9.1c0,0,3.7-1.9,4.3,4.5S339,113,339,113V108.6z"/>
					</g>
				</mask>
				
					<linearGradient id="SVGID_18_" gradientUnits="userSpaceOnUse" x1="268.2734" y1="104.8528" x2="281.791" y2="107.8266" gradientTransform="matrix(-1 0 0 1 613.4279 0)">
					<stop  offset="0" style="stop-color:#000000"/>
					<stop  offset="1" style="stop-color:#000000"/>
				</linearGradient>
				<path class="st21" d="M339,108.6v-9.1c0,0,3.7-1.9,4.3,4.5S339,113,339,113V108.6z"/>
			</g>
			<polygon class="st22" points="257.1,95.5 244,46.4 257.1,33.1 269.6,52.1 258,74.6 			"/>
			<polygon class="st22" points="338.6,95.5 351.7,46.4 338.7,33.1 326.2,52.1 337.8,74.6 			"/>
			<path class="st22" d="M269.6,52.1c0,0,21.2,12.7,56.6,0l12.5-19c0,0,7.6-9.5,4.1-26.5l-19.7,4.1l3.1-7.9c0,0-47.9-11.2-51.2,16.6
				c0,0-2.1-9.1,7.9-16.6c0,0-32.4,8.7-25.7,30.3L269.6,52.1z"/>
		</g>
		<path class="st22" d="M257.1,119c0,0,27.5,27.1,28.7,49.5h11.1v23.1c0,0-15,1.3-19.9-5.8c-4.9-7.1-7.5-12.6-7.5-12.6l-14.7-27.1
			L257.1,119z"/>
		<path class="st22" d="M338.9,119c0,0-27.5,27.1-28.7,49.5h-11.1v23.1c0,0,15,1.3,19.9-5.8c4.9-7.1,7.5-12.6,7.5-12.6l14.7-27.1
			L338.9,119z"/>
		<path class="st22" d="M288.9,191.3c0,0,10.1,0.5,16.3,0.3c6.3-0.2-4.3-23.2-4.3-23.2h-6.9L288.9,191.3z"/>
		<path class="st22" d="M278.2,146.4l11.9-7.5h7.9l0,5.5c0,0-14.3,3.9-16.2,9.1L278.2,146.4z"/>
		<path class="st22" d="M317.9,146.4l-11.9-7.5h-7.9l0,5.5c0,0,14.3,3.9,16.2,9.1L317.9,146.4z"/>
		<defs>
			<filter id="Adobe_OpacityMaskFilter_8_" filterUnits="userSpaceOnUse" x="288.9" y="106.1" width="17.1" height="32.8">
				<feFlood  style="flood-color:white;flood-opacity:1" result="back"/>
				<feBlend  in="SourceGraphic" in2="back" mode="normal"/>
			</filter>
		</defs>
		<mask maskUnits="userSpaceOnUse" x="288.9" y="106.1" width="17.1" height="32.8" id="SVGID_19_">
			<g class="st23">
				<defs>
					<filter id="Adobe_OpacityMaskFilter_9_" filterUnits="userSpaceOnUse" x="288.9" y="106.1" width="17.1" height="32.8">
						<feFlood  style="flood-color:white;flood-opacity:1" result="back"/>
						<feBlend  in="SourceGraphic" in2="back" mode="normal"/>
					</filter>
				</defs>
				<mask maskUnits="userSpaceOnUse" x="288.9" y="106.1" width="17.1" height="32.8" id="SVGID_19_">
					<g class="st24">
					</g>
				</mask>
				<linearGradient id="SVGID_20_" gradientUnits="userSpaceOnUse" x1="297.2017" y1="114.7389" x2="297.7902" y2="158.6806">
					<stop  offset="0" style="stop-color:#000000"/>
					<stop  offset="1" style="stop-color:#FFFFFF"/>
				</linearGradient>
				<polygon class="st25" points="288.9,130.5 293.5,136.3 302.3,136.3 301.5,106.1 306,138.9 290.2,138.9 				"/>
			</g>
		</mask>
		<linearGradient id="SVGID_21_" gradientUnits="userSpaceOnUse" x1="297.2017" y1="114.7389" x2="297.7902" y2="158.6806">
			<stop  offset="0" style="stop-color:#000000"/>
			<stop  offset="1" style="stop-color:#000000"/>
		</linearGradient>
		<polygon class="st26" points="288.9,130.5 293.5,136.3 302.3,136.3 301.5,106.1 306,138.9 290.2,138.9 		"/>
	</g>
	<linearGradient id="SVGID_22_" gradientUnits="userSpaceOnUse" x1="207.7006" y1="251.5368" x2="456.441" y2="586.7373">
		<stop  offset="1.566510e-02" style="stop-color:#FFFFFF"/>
		<stop  offset="1" style="stop-color:#B4B4B5"/>
	</linearGradient>
	<polygon class="st27" points="330.8,212.5 296.9,241.1 262.9,209.7 194.1,270.5 237.6,500.6 237.6,546.4 355.4,546.4 356.3,500.6 
		356.3,500.6 391.4,244.5 	"/>
	<linearGradient id="SVGID_23_" gradientUnits="userSpaceOnUse" x1="198.1822" y1="268.7863" x2="198.1822" y2="268.7863">
		<stop  offset="0" style="stop-color:#FF9700"/>
		<stop  offset="1" style="stop-color:#FFC543"/>
	</linearGradient>
	<path class="st28" d="M198.2,268.8"/>
	<linearGradient id="SVGID_24_" gradientUnits="userSpaceOnUse" x1="293.0902" y1="483.4315" x2="306.3915" y2="978.2522">
		<stop  offset="3.285260e-03" style="stop-color:#0037FF"/>
		<stop  offset="0.9962" style="stop-color:#50FF9F"/>
	</linearGradient>
	<rect x="237.6" y="546.4" class="st29" width="116.4" height="71.2"/>
	<defs>
		<filter id="Adobe_OpacityMaskFilter_10_" filterUnits="userSpaceOnUse" x="290.7" y="98.7" width="13.5" height="35.8">
			<feFlood  style="flood-color:white;flood-opacity:1" result="back"/>
			<feBlend  in="SourceGraphic" in2="back" mode="normal"/>
		</filter>
	</defs>
	<mask maskUnits="userSpaceOnUse" x="290.7" y="98.7" width="13.5" height="35.8" id="SVGID_25_">
		<g class="st30">
			<defs>
				<filter id="Adobe_OpacityMaskFilter_11_" filterUnits="userSpaceOnUse" x="290.7" y="98.7" width="13.5" height="35.8">
					<feFlood  style="flood-color:white;flood-opacity:1" result="back"/>
					<feBlend  in="SourceGraphic" in2="back" mode="normal"/>
				</filter>
			</defs>
			<mask maskUnits="userSpaceOnUse" x="290.7" y="98.7" width="13.5" height="35.8" id="SVGID_25_">
				<g class="st31">
				</g>
			</mask>
			<linearGradient id="SVGID_26_" gradientUnits="userSpaceOnUse" x1="297.7842" y1="82.0693" x2="296.6758" y2="131.5071">
				<stop  offset="0" style="stop-color:#000000"/>
				<stop  offset="0.9993" style="stop-color:#FFFFFF"/>
			</linearGradient>
			<polygon class="st32" points="290.7,98.7 292.9,111.1 292.9,134.5 301.1,134.5 301.1,111.1 304.1,98.7 			"/>
		</g>
	</mask>
	<linearGradient id="SVGID_27_" gradientUnits="userSpaceOnUse" x1="297.7842" y1="82.0693" x2="296.6758" y2="131.5071">
		<stop  offset="0" style="stop-color:#A9CCFF"/>
		<stop  offset="0.9993" style="stop-color:#FFFFFF"/>
	</linearGradient>
	<polygon class="st33" points="290.7,98.7 292.9,111.1 292.9,134.5 301.1,134.5 301.1,111.1 304.1,98.7 	"/>
	<path class="st34" d="M275.7,40.8c0,0,11.7,16.9,31.5,11.3c19.8-5.6,31.7-35,31.7-35l-25.3,18.1l12.5-13l-18.9,10.9L320.1,12
		c0,0-29.6-2.7-35.5,12.9s4.9,22,4.9,22S282.1,46.8,275.7,40.8z"/>
	<linearGradient id="SVGID_28_" gradientUnits="userSpaceOnUse" x1="260.8504" y1="484.2981" x2="274.1517" y2="979.1191">
		<stop  offset="3.285260e-03" style="stop-color:#0037FF"/>
		<stop  offset="0.9962" style="stop-color:#50FF9F"/>
	</linearGradient>
	<polygon class="st35" points="291.4,664.6 242,664.6 237.2,613.4 291.4,613.4 	"/>
	<linearGradient id="SVGID_29_" gradientUnits="userSpaceOnUse" x1="322.6073" y1="482.6381" x2="335.9086" y2="977.4589">
		<stop  offset="3.285260e-03" style="stop-color:#0037FF"/>
		<stop  offset="0.9962" style="stop-color:#50FF9F"/>
	</linearGradient>
	<polygon class="st36" points="350.3,664.6 299.7,664.6 299.7,613.4 353.9,613.4 	"/>
	<rect x="294.1" y="160.4" class="st22" width="8" height="10.5"/>
	<polygon class="st37" points="296.9,241.1 269.6,260.5 257.1,214.8 262.9,209.7 	"/>
	<polygon class="st37" points="296.8,241.1 324.2,260.5 336.6,214.8 330.9,209.7 	"/>
	<defs>
		<filter id="Adobe_OpacityMaskFilter_12_" filterUnits="userSpaceOnUse" x="301.5" y="96.8" width="32.5" height="16.2">
			<feFlood  style="flood-color:white;flood-opacity:1" result="back"/>
			<feBlend  in="SourceGraphic" in2="back" mode="normal"/>
		</filter>
	</defs>
	<mask maskUnits="userSpaceOnUse" x="301.5" y="96.8" width="32.5" height="16.2" id="SVGID_30_">
		<g class="st38">
			<defs>
				<filter id="Adobe_OpacityMaskFilter_13_" filterUnits="userSpaceOnUse" x="301.5" y="96.8" width="32.5" height="16.2">
					<feFlood  style="flood-color:white;flood-opacity:1" result="back"/>
					<feBlend  in="SourceGraphic" in2="back" mode="normal"/>
				</filter>
			</defs>
			<mask maskUnits="userSpaceOnUse" x="301.5" y="96.8" width="32.5" height="16.2" id="SVGID_30_">
				<g class="st39">
				</g>
			</mask>
			<linearGradient id="SVGID_31_" gradientUnits="userSpaceOnUse" x1="318.7361" y1="107.2617" x2="305.9643" y2="76.4864">
				<stop  offset="0" style="stop-color:#000000"/>
				<stop  offset="1" style="stop-color:#FFFFFF"/>
			</linearGradient>
			<polygon class="st40" points="301.5,106.1 308,96.8 334.1,99.3 302.5,113 			"/>
		</g>
	</mask>
	<linearGradient id="SVGID_32_" gradientUnits="userSpaceOnUse" x1="318.7361" y1="107.2617" x2="305.9643" y2="76.4864">
		<stop  offset="0" style="stop-color:#000000"/>
		<stop  offset="1" style="stop-color:#000000"/>
	</linearGradient>
	<polygon class="st41" points="301.5,106.1 308,96.8 334.1,99.3 302.5,113 	"/>
	<defs>
		<filter id="Adobe_OpacityMaskFilter_14_" filterUnits="userSpaceOnUse" x="260.5" y="96.8" width="32.5" height="16.2">
			<feFlood  style="flood-color:white;flood-opacity:1" result="back"/>
			<feBlend  in="SourceGraphic" in2="back" mode="normal"/>
		</filter>
	</defs>
	<mask maskUnits="userSpaceOnUse" x="260.5" y="96.8" width="32.5" height="16.2" id="SVGID_33_">
		<g class="st42">
			<defs>
				<filter id="Adobe_OpacityMaskFilter_15_" filterUnits="userSpaceOnUse" x="260.5" y="96.8" width="32.5" height="16.2">
					<feFlood  style="flood-color:white;flood-opacity:1" result="back"/>
					<feBlend  in="SourceGraphic" in2="back" mode="normal"/>
				</filter>
			</defs>
			<mask maskUnits="userSpaceOnUse" x="260.5" y="96.8" width="32.5" height="16.2" id="SVGID_33_">
				<g class="st43">
				</g>
			</mask>
			
				<linearGradient id="SVGID_34_" gradientUnits="userSpaceOnUse" x1="-2321.241" y1="107.2617" x2="-2334.0129" y2="76.4864" gradientTransform="matrix(-1 0 0 1 -2045.4302 0)">
				<stop  offset="0" style="stop-color:#000000"/>
				<stop  offset="1" style="stop-color:#FFFFFF"/>
			</linearGradient>
			<polygon class="st44" points="293,106.1 286.5,96.8 260.5,99.3 292.1,113 			"/>
		</g>
	</mask>
	
		<linearGradient id="SVGID_35_" gradientUnits="userSpaceOnUse" x1="-2321.241" y1="107.2617" x2="-2334.0129" y2="76.4864" gradientTransform="matrix(-1 0 0 1 -2045.4302 0)">
		<stop  offset="0" style="stop-color:#000000"/>
		<stop  offset="1" style="stop-color:#000000"/>
	</linearGradient>
	<polygon class="st45" points="293,106.1 286.5,96.8 260.5,99.3 292.1,113 	"/>
	<linearGradient id="SVGID_36_" gradientUnits="userSpaceOnUse" x1="329.4589" y1="128.2701" x2="498.3901" y2="765.4197">
		<stop  offset="3.285260e-03" style="stop-color:#0037FF"/>
		<stop  offset="0.9962" style="stop-color:#50FF9F"/>
	</linearGradient>
	<path class="st46" d="M336.6,214.8c0,0,4.4,238.6,42.5,305.7c38.2,67.1,103.4,61.6,134.8,88c0,0-0.6-40.6-42.5-70.8
		c-41.9-30.2-95.4-35.7-97.2-81.9s32.3-211.4,32.3-211.4L336.6,214.8z"/>
	<defs>
		<filter id="Adobe_OpacityMaskFilter_16_" filterUnits="userSpaceOnUse" x="257.1" y="72.3" width="79.5" height="45.8">
			<feFlood  style="flood-color:white;flood-opacity:1" result="back"/>
			<feBlend  in="SourceGraphic" in2="back" mode="normal"/>
		</filter>
	</defs>
	<mask maskUnits="userSpaceOnUse" x="257.1" y="72.3" width="79.5" height="45.8" id="SVGID_37_">
		<g class="st47">
			<defs>
				<filter id="Adobe_OpacityMaskFilter_17_" filterUnits="userSpaceOnUse" x="257.1" y="72.3" width="79.5" height="45.8">
					<feFlood  style="flood-color:white;flood-opacity:1" result="back"/>
					<feBlend  in="SourceGraphic" in2="back" mode="normal"/>
				</filter>
			</defs>
			<mask maskUnits="userSpaceOnUse" x="257.1" y="72.3" width="79.5" height="45.8" id="SVGID_37_">
				<g class="st48">
				</g>
			</mask>
			<linearGradient id="SVGID_38_" gradientUnits="userSpaceOnUse" x1="296.6259" y1="95.1134" x2="278.8904" y2="43.6804">
				<stop  offset="0" style="stop-color:#000000"/>
				<stop  offset="1" style="stop-color:#FFFFFF"/>
			</linearGradient>
			<path class="st49" d="M324.3,72.3l12.3,30.1c0,0-30.4,24.2-54,12.5c-23.5-11.8-25.5-26.1-25.5-26.1l16-14.1L324.3,72.3z"/>
		</g>
	</mask>
	<linearGradient id="SVGID_39_" gradientUnits="userSpaceOnUse" x1="296.6259" y1="95.1134" x2="278.8904" y2="43.6804">
		<stop  offset="0" style="stop-color:#000000"/>
		<stop  offset="1" style="stop-color:#000000"/>
	</linearGradient>
	<path class="st50" d="M324.3,72.3l12.3,30.1c0,0-30.4,24.2-54,12.5c-23.5-11.8-25.5-26.1-25.5-26.1l16-14.1L324.3,72.3z"/>
	<linearGradient id="SVGID_40_" gradientUnits="userSpaceOnUse" x1="273.481" y1="88.2944" x2="270.0188" y2="67.9828">
		<stop  offset="0" style="stop-color:#A9CCFF"/>
		<stop  offset="0.9993" style="stop-color:#FFFFFF"/>
	</linearGradient>
	<path class="st51" d="M219.7,84l54.8-13.8l49.7,2.1c0,0-10.7,6.5-20.8,2.6l-35.2,8.6c0,0,24-6.3,28-3.5l-27.7,9.5
		c0,0-41.1-4.2-47.4,5.9L219.7,84z"/>
	<linearGradient id="SVGID_41_" gradientUnits="userSpaceOnUse" x1="220.9324" y1="511.9073" x2="52.0008" y2="-73.3664">
		<stop  offset="3.285260e-03" style="stop-color:#0037FF"/>
		<stop  offset="0.9962" style="stop-color:#50FF9F"/>
	</linearGradient>
	<path class="st52" d="M225.3,546.4c2.5,26.2,7.4,43.6,7.4,43.6s-31.4-16.6-30.8-56.6c0.6-40,12.4-97.4,7.8-121.7l-15.6-141.1
		c0,0-125.7-20.5-174.6-52.1h0c-12.7-8.2-20.2-17.2-18.9-26.8C7.1,145.4,225.6,80,225.6,80v16.8C155.1,178.9,58.8,193,58.8,193
		l198.3,21.8C257.1,214.8,218.7,476.6,225.3,546.4z"/>
	<polygon class="st37" points="225.6,80 225.6,96.8 233.3,95.2 233.3,78.2 	"/>
	<linearGradient id="SVGID_42_" gradientUnits="userSpaceOnUse" x1="226.3388" y1="256.5829" x2="53.3817" y2="237.5023">
		<stop  offset="0" style="stop-color:#001D56"/>
		<stop  offset="0.9986" style="stop-color:#1A66FF"/>
	</linearGradient>
	<path class="st53" d="M194.1,270.5c0,0-125.7-20.5-174.6-52.1c93.4,31,171.3,16.7,171.3,16.7L194.1,270.5z"/>
	<defs>
		<filter id="Adobe_OpacityMaskFilter_18_" filterUnits="userSpaceOnUse" x="289.3" y="263.8" width="70.4" height="236.8">
			<feFlood  style="flood-color:white;flood-opacity:1" result="back"/>
			<feBlend  in="SourceGraphic" in2="back" mode="normal"/>
		</filter>
	</defs>
	<mask maskUnits="userSpaceOnUse" x="289.3" y="263.8" width="70.4" height="236.8" id="SVGID_43_">
		<g class="st54">
			<defs>
				<filter id="Adobe_OpacityMaskFilter_19_" filterUnits="userSpaceOnUse" x="289.3" y="263.8" width="70.4" height="236.8">
					<feFlood  style="flood-color:white;flood-opacity:1" result="back"/>
					<feBlend  in="SourceGraphic" in2="back" mode="normal"/>
				</filter>
			</defs>
			<mask maskUnits="userSpaceOnUse" x="289.3" y="263.8" width="70.4" height="236.8" id="SVGID_43_">
				<g class="st55">
				</g>
			</mask>
			<linearGradient id="SVGID_44_" gradientUnits="userSpaceOnUse" x1="285.7913" y1="367.9821" x2="603.3918" y2="472.0022">
				<stop  offset="0" style="stop-color:#000000"/>
				<stop  offset="1" style="stop-color:#FFFFFF"/>
			</linearGradient>
			<path class="st56" d="M302.1,263.8c0,0-17.9,169.3,54.2,200.7l3.5,11l-3.5,25.2c0,0-43.2-13.4-58.2-52.2
				c-15-38.8-6.8-118.9-4-163.1L302.1,263.8z"/>
		</g>
	</mask>
	<linearGradient id="SVGID_45_" gradientUnits="userSpaceOnUse" x1="285.7913" y1="367.9821" x2="603.3918" y2="472.0022">
		<stop  offset="0" style="stop-color:#000000"/>
		<stop  offset="1" style="stop-color:#000000"/>
	</linearGradient>
	<path class="st57" d="M302.1,263.8c0,0-17.9,169.3,54.2,200.7l3.5,11l-3.5,25.2c0,0-43.2-13.4-58.2-52.2
		c-15-38.8-6.8-118.9-4-163.1L302.1,263.8z"/>
	<linearGradient id="SVGID_46_" gradientUnits="userSpaceOnUse" x1="284.2483" y1="358.9366" x2="528.7047" y2="358.9366">
		<stop  offset="0" style="stop-color:#FF5586"/>
		<stop  offset="0.9936" style="stop-color:#990ADD"/>
	</linearGradient>
	<path class="st58" d="M296.8,241.1l-12.6,9l9.8,13.7c0,0-31.2,145.3,22.6,192c53.8,46.8,132.3-0.9,179.7,10.2l32.3-13.2l-27.1-26.5
		c0,0-39.1-6.2-83.1,14.2c-29,13.4-112.7,9.4-118.6-75.1c-5.9-84.5,2.1-101.6,2.1-101.6l10.5-11.5L296.8,241.1z"/>
	<defs>
		<filter id="Adobe_OpacityMaskFilter_20_" filterUnits="userSpaceOnUse" x="306" y="428.6" width="222.7" height="45">
			<feFlood  style="flood-color:white;flood-opacity:1" result="back"/>
			<feBlend  in="SourceGraphic" in2="back" mode="normal"/>
		</filter>
	</defs>
	<mask maskUnits="userSpaceOnUse" x="306" y="428.6" width="222.7" height="45" id="SVGID_47_">
		<g class="st59">
			<defs>
				<filter id="Adobe_OpacityMaskFilter_21_" filterUnits="userSpaceOnUse" x="306" y="428.6" width="222.7" height="45">
					<feFlood  style="flood-color:white;flood-opacity:1" result="back"/>
					<feBlend  in="SourceGraphic" in2="back" mode="normal"/>
				</filter>
			</defs>
			<mask maskUnits="userSpaceOnUse" x="306" y="428.6" width="222.7" height="45" id="SVGID_47_">
				<g class="st60">
				</g>
			</mask>
			<linearGradient id="SVGID_48_" gradientUnits="userSpaceOnUse" x1="351.6938" y1="435.0455" x2="950.8888" y2="603.5405">
				<stop  offset="0" style="stop-color:#000000"/>
				<stop  offset="1" style="stop-color:#FFFFFF"/>
			</linearGradient>
			<path class="st61" d="M528.7,452.7c0,0-42.4-22.7-104.7-2.5s-102.5,10.2-118-21.7c0,0,25.2,64.1,119.3,39.2
				c38.3-10.2,71.1-1.8,71.1-1.8L528.7,452.7z"/>
		</g>
	</mask>
	<linearGradient id="SVGID_49_" gradientUnits="userSpaceOnUse" x1="351.6938" y1="435.0455" x2="950.8888" y2="603.5405">
		<stop  offset="0" style="stop-color:#000000"/>
		<stop  offset="1" style="stop-color:#000000"/>
	</linearGradient>
	<path class="st62" d="M528.7,452.7c0,0-42.4-22.7-104.7-2.5s-102.5,10.2-118-21.7c0,0,25.2,64.1,119.3,39.2
		c38.3-10.2,71.1-1.8,71.1-1.8L528.7,452.7z"/>
</g>
</svg>
