<svg width="255" height="40" viewBox="0 0 255 40" fill="none" xmlns="http://www.w3.org/2000/svg">
<path d="M5.63566 40C3.86761 39.8514 2.48632 39.2758 1.49179 38.273C0.497265 37.2702 0 36.0074 0 34.4847C0 33.2962 0.294675 32.052 0.884026 30.7521L13.3709 2.72981C13.7761 1.8013 14.2918 1.11421 14.9179 0.668525C15.581 0.222842 16.3913 0 17.349 0C18.3067 0 19.0986 0.222842 19.7248 0.668525C20.3878 1.11421 20.9219 1.8013 21.3271 2.72981L33.814 30.7521C34.4033 32.052 34.698 33.2776 34.698 34.429C34.698 35.9889 34.2007 37.2702 33.2062 38.273C32.2117 39.2758 30.812 39.8514 29.0071 40L24.366 29.805H10.2768L5.63566 40ZM21.8796 22.7855L16.1887 8.52368L15.4152 8.85794L16.907 12.5905L12.7079 22.7855H21.8796Z" fill="white"/>
<path d="M48.4475 40C46.4952 40 44.7272 39.5729 43.1433 38.7187C41.5594 37.8273 40.3071 36.6202 39.3862 35.0975C38.4653 33.5376 38.0049 31.792 38.0049 29.8607V21.2813C38.0049 19.3501 38.4838 17.623 39.4414 16.1003C40.436 14.5404 41.7989 13.3333 43.5301 12.4791C45.2613 11.5877 47.1767 11.1421 49.2762 11.1421C50.5286 11.1421 51.8731 11.402 53.3096 11.922C54.783 12.442 55.9985 13.1662 56.9562 14.0947L57.1772 13.8162C56.993 13.519 56.5879 13.1476 55.9617 12.702V5.01393C55.9617 3.45404 56.5879 2.22841 57.8402 1.33705C59.1294 0.445682 61.0632 0 63.6417 0V34.9304C63.6417 36.3788 63.0707 37.5859 61.9289 38.5515C60.787 39.5172 59.0374 40 56.68 40V36.9916C57.122 36.4345 57.4719 35.9332 57.7297 35.4875L57.4535 35.2646C56.2748 36.8617 55.004 38.0501 53.6411 38.8301C52.3151 39.61 50.5839 40 48.4475 40ZM50.8233 33.4262C52.3703 33.4262 53.6227 33.0734 54.5804 32.3677C55.5749 31.6249 56.0722 30.6964 56.0722 29.5822V21.5599C56.0722 20.4828 55.5749 19.5729 54.5804 18.8301C53.6227 18.0873 52.3703 17.7159 50.8233 17.7159C49.1289 17.7159 47.8213 18.0687 46.9004 18.7744C46.0164 19.48 45.5744 20.4828 45.5744 21.7827V29.3036C45.5744 30.6407 46.0164 31.662 46.9004 32.3677C47.8213 33.0734 49.1289 33.4262 50.8233 33.4262Z" fill="white"/>
<path d="M79.9638 40C78.9692 40 78.1036 39.7772 77.3669 39.3315C76.6671 38.8858 76.1698 38.273 75.8751 37.493L66.1509 11.7549C66.4087 11.5692 66.8875 11.4206 67.5874 11.3092C68.3241 11.1978 68.9319 11.1421 69.4107 11.1421C70.5894 11.1421 71.6392 11.3835 72.56 11.8663C73.5177 12.312 74.1439 12.9991 74.4386 13.9276L79.577 30.4178L78.6377 33.1476L79.135 33.3148L85.4889 13.9276C85.7836 12.9991 86.3914 12.312 87.3122 11.8663C88.2699 11.3835 89.3381 11.1421 90.5168 11.1421C90.9957 11.1421 91.585 11.1978 92.2849 11.3092C93.0216 11.4206 93.5188 11.5692 93.7767 11.7549L84.0524 37.493C83.7577 38.273 83.242 38.8858 82.5053 39.3315C81.8055 39.7772 80.9583 40 79.9638 40Z" fill="white"/>
<path d="M107.528 40C105.244 40 103.126 39.5358 101.174 38.6072C99.2585 37.6787 97.7299 36.416 96.588 34.8189C95.4462 33.2219 94.8752 31.4392 94.8752 29.4708V22.3398C94.8752 20.26 95.4462 18.3658 96.588 16.6574C97.7667 14.9118 99.3322 13.5562 101.284 12.5905C103.237 11.6249 105.336 11.1421 107.583 11.1421C109.793 11.1421 111.819 11.6063 113.661 12.5348C115.539 13.4262 117.013 14.7075 118.081 16.3788C119.149 18.013 119.683 19.87 119.683 21.9499V24.9582C119.683 25.8496 119.352 26.611 118.689 27.2423C118.026 27.8366 117.178 28.1337 116.147 28.1337H102.224V28.9137C102.224 30.3993 102.666 31.6249 103.55 32.5905C104.471 33.519 105.815 33.9833 107.583 33.9833C109.314 33.9833 110.585 33.6119 111.395 32.8691C112.206 32.0891 112.611 31.1235 112.611 29.9721C113.348 29.8979 113.9 29.8607 114.269 29.8607C115.779 29.8607 116.939 30.1764 117.749 30.8078C118.56 31.4392 118.965 32.3677 118.965 33.5933C118.965 34.5961 118.468 35.5989 117.473 36.6017C116.479 37.6045 115.097 38.4215 113.329 39.0529C111.598 39.6843 109.664 40 107.528 40ZM112.832 22.7298V21.9499C112.832 20.4643 112.335 19.2943 111.34 18.4401C110.383 17.5487 109.112 17.1031 107.528 17.1031C105.944 17.1031 104.655 17.5487 103.66 18.4401C102.703 19.2943 102.224 20.4643 102.224 21.9499V22.7298H112.832Z" fill="white"/>
<path d="M139.639 17.7159C137.429 17.7159 135.642 18.2916 134.28 19.4429C132.917 20.5942 132.235 22.0427 132.235 23.7883V35.5432C132.235 37.1402 131.609 38.2916 130.357 38.9972C129.141 39.6657 127.244 40 124.666 40V16.9359C124.666 15.0789 125.274 13.649 126.489 12.6462C127.705 11.6435 129.509 11.1421 131.904 11.1421V14.429C131.351 15.0232 130.891 15.6546 130.522 16.3231L130.909 16.546C133.23 12.9434 136.121 11.1421 139.584 11.1421C141.241 11.1421 142.494 11.5877 143.341 12.4791C144.188 13.3705 144.612 14.5033 144.612 15.8774C144.612 16.9174 144.335 17.8273 143.783 18.6072C142.751 18.013 141.37 17.7159 139.639 17.7159Z" fill="white"/>
<path d="M161.519 40C158.389 40 156.086 39.0901 154.613 37.2702C153.14 35.4503 152.403 33.1105 152.403 30.2507V17.2702H146.546C146.546 15.376 146.896 13.9647 147.596 13.0362C148.296 12.1077 149.217 11.6435 150.359 11.6435H152.513V7.24234C152.513 5.64531 153.121 4.51254 154.337 3.84401C155.552 3.13835 157.394 2.78552 159.862 2.78552V11.6435H167.21C167.21 13.649 166.842 15.0975 166.105 15.9889C165.369 16.8431 164.153 17.2702 162.459 17.2702H159.972V29.9721C159.972 31.1978 160.212 32.0891 160.691 32.6462C161.17 33.1662 161.998 33.4262 163.177 33.4262C164.466 33.4262 165.792 33.0548 167.155 32.312C167.56 32.6834 167.873 33.1476 168.094 33.7047C168.352 34.2618 168.481 34.8189 168.481 35.376C168.481 36.1189 168.223 36.8431 167.708 37.5487C167.192 38.2544 166.4 38.8487 165.332 39.3315C164.3 39.7772 163.03 40 161.519 40Z" fill="white"/>
<path d="M185.101 40C181.344 40 178.378 39.3686 176.205 38.1059C174.032 36.8059 172.945 35.0789 172.945 32.9248C172.945 31.9591 173.35 31.1421 174.161 30.4735C175.008 29.805 176.352 29.4708 178.194 29.4708C178.489 30.9564 179.226 32.1263 180.404 32.9805C181.583 33.7976 182.964 34.2061 184.548 34.2061C186.39 34.2061 187.808 33.9833 188.803 33.5376C189.834 33.0919 190.35 32.442 190.35 31.5877C190.35 30.8449 189.944 30.195 189.134 29.6379C188.324 29.0808 186.703 28.5051 184.272 27.9109C181.436 27.2423 179.226 26.5738 177.642 25.9053C176.095 25.1996 174.953 24.3268 174.216 23.2869C173.479 22.247 173.111 20.8728 173.111 19.1643C173.111 16.7502 174.106 14.8189 176.095 13.3705C178.121 11.8849 180.938 11.1421 184.548 11.1421C188.084 11.1421 190.957 11.7549 193.167 12.9805C195.377 14.2061 196.482 15.8403 196.482 17.883C196.482 18.9229 196.096 19.6843 195.322 20.1671C194.549 20.6128 193.259 20.8542 191.455 20.8914C190.976 19.48 190.239 18.4401 189.245 17.7716C188.287 17.0659 186.906 16.7131 185.101 16.7131C183.811 16.7131 182.67 16.9359 181.675 17.3816C180.681 17.8273 180.183 18.3658 180.183 18.9972C180.183 19.7029 180.588 20.26 181.399 20.6685C182.246 21.0771 183.646 21.4856 185.598 21.8942C189.834 22.8227 192.873 24.0483 194.714 25.571C196.593 27.0938 197.532 29.1551 197.532 31.7549C197.532 33.3519 197.035 34.7818 196.04 36.0446C195.046 37.3073 193.609 38.2916 191.731 38.9972C189.852 39.6657 187.642 40 185.101 40Z" fill="white"/>
<path d="M214.416 40C212.132 40 210.014 39.5358 208.062 38.6072C206.147 37.6787 204.618 36.416 203.476 34.8189C202.334 33.2219 201.763 31.4392 201.763 29.4708V22.3398C201.763 20.26 202.334 18.3658 203.476 16.6574C204.655 14.9118 206.22 13.5562 208.173 12.5905C210.125 11.6249 212.224 11.1421 214.471 11.1421C216.681 11.1421 218.707 11.6063 220.549 12.5348C222.427 13.4262 223.901 14.7075 224.969 16.3788C226.037 18.013 226.571 19.87 226.571 21.9499V24.9582C226.571 25.8496 226.24 26.611 225.577 27.2423C224.914 27.8366 224.067 28.1337 223.035 28.1337H209.112V28.9137C209.112 30.3993 209.554 31.6249 210.438 32.5905C211.359 33.519 212.703 33.9833 214.471 33.9833C216.202 33.9833 217.473 33.6119 218.284 32.8691C219.094 32.0891 219.499 31.1235 219.499 29.9721C220.236 29.8979 220.788 29.8607 221.157 29.8607C222.667 29.8607 223.827 30.1764 224.638 30.8078C225.448 31.4392 225.853 32.3677 225.853 33.5933C225.853 34.5961 225.356 35.5989 224.361 36.6017C223.367 37.6045 221.985 38.4215 220.217 39.0529C218.486 39.6843 216.552 40 214.416 40ZM219.72 22.7298V21.9499C219.72 20.4643 219.223 19.2943 218.228 18.4401C217.271 17.5487 216 17.1031 214.416 17.1031C212.832 17.1031 211.543 17.5487 210.548 18.4401C209.591 19.2943 209.112 20.4643 209.112 21.9499V22.7298H219.72Z" fill="white"/>
<path d="M239.916 40C238.111 40 236.417 39.6472 234.833 38.9415C233.286 38.1987 232.034 37.1402 231.076 35.766C230.118 34.3547 229.64 32.6648 229.64 30.6964C229.64 28.728 230.155 27.0381 231.187 25.6267C232.218 24.1783 233.581 23.0826 235.275 22.3398C237.006 21.597 238.885 21.2256 240.911 21.2256C242.605 21.2256 244.097 21.4856 245.386 22.0056C246.712 22.5255 247.946 23.2869 249.088 24.2897L249.364 23.9554C248.591 23.2498 247.983 22.7484 247.541 22.4513V21.727C247.541 20.3157 247.025 19.2015 245.994 18.3844C244.999 17.5302 243.581 17.1031 241.74 17.1031C240.119 17.1031 238.682 17.4002 237.43 17.9944C236.178 18.5887 235.165 19.4615 234.391 20.6128C233.507 20.39 232.752 19.9814 232.126 19.3872C231.536 18.7558 231.242 18.0687 231.242 17.3259C231.242 16.1746 231.739 15.1346 232.734 14.2061C233.728 13.2405 235.073 12.4977 236.767 11.9777C238.498 11.4206 240.395 11.1421 242.458 11.1421C246.473 11.1421 249.567 12.0706 251.74 13.9276C253.913 15.7846 255 18.3101 255 21.5042V35.0418C255 36.7874 254.429 38.0501 253.287 38.8301C252.182 39.61 250.414 40 247.983 40V37.8273C248.536 37.3073 248.978 36.8431 249.309 36.4345L249.033 36.156C247.817 37.4188 246.546 38.3844 245.22 39.0529C243.894 39.6843 242.126 40 239.916 40ZM242.016 34.5404C243.784 34.5404 245.165 34.2061 246.16 33.5376C247.154 32.8691 247.652 31.9034 247.652 30.6407C247.652 29.415 247.136 28.4494 246.104 27.7437C245.11 27.0381 243.747 26.6852 242.016 26.6852C240.469 26.6852 239.235 27.0381 238.314 27.7437C237.43 28.4494 236.988 29.415 236.988 30.6407C236.988 31.9034 237.43 32.8691 238.314 33.5376C239.235 34.2061 240.469 34.5404 242.016 34.5404Z" fill="white"/>
</svg>
